<svg width="351" height="67" viewBox="0 0 351 67" fill="none" xmlns="http://www.w3.org/2000/svg">
<path d="M33.5 3.5H317.5C334.069 3.5 347.5 16.9315 347.5 33.5C347.5 50.0685 334.069 63.5 317.5 63.5H33.5C16.9315 63.5 3.5 50.0685 3.5 33.5C3.5 16.9315 16.9315 3.5 33.5 3.5Z" fill="white"/>
<path d="M33.5 3.5H317.5C334.069 3.5 347.5 16.9315 347.5 33.5C347.5 50.0685 334.069 63.5 317.5 63.5H33.5C16.9315 63.5 3.5 50.0685 3.5 33.5C3.5 16.9315 16.9315 3.5 33.5 3.5Z" stroke="#747775"/>
<path fill-rule="evenodd" clip-rule="evenodd" d="M92.64 33.7046C92.64 33.0664 92.5827 32.4527 92.4764 31.8636H84V35.345H88.8436C88.635 36.47 88.0009 37.4232 87.0477 38.0614V40.3196H89.9564C91.6582 38.7527 92.64 36.4455 92.64 33.7046Z" fill="#4285F4"/>
<path fill-rule="evenodd" clip-rule="evenodd" d="M84 42.5C86.43 42.5 88.4673 41.6941 89.9564 40.3195L87.0477 38.0613C86.2418 38.6013 85.2109 38.9204 84 38.9204C81.6559 38.9204 79.6718 37.3372 78.9641 35.21H75.9573V37.5418C77.4382 40.4831 80.4818 42.5 84 42.5Z" fill="#34A853"/>
<path fill-rule="evenodd" clip-rule="evenodd" d="M78.9641 35.2099C78.7841 34.6699 78.6818 34.0931 78.6818 33.4999C78.6818 32.9068 78.7841 32.3299 78.9641 31.7899V29.4581H75.9573C75.3477 30.6731 75 32.0477 75 33.4999C75 34.9522 75.3477 36.3268 75.9573 37.5418L78.9641 35.2099Z" fill="#FBBC05"/>
<path fill-rule="evenodd" clip-rule="evenodd" d="M84 28.0795C85.3214 28.0795 86.5077 28.5336 87.4405 29.4255L90.0218 26.8441C88.4632 25.3918 86.4259 24.5 84 24.5C80.4818 24.5 77.4382 26.5168 75.9573 29.4582L78.9641 31.79C79.6718 29.6627 81.6559 28.0795 84 28.0795Z" fill="#EA4335"/>
<path d="M111.926 36.3379C111.926 36.0449 111.88 35.7845 111.789 35.5566C111.704 35.3288 111.551 35.1204 111.33 34.9316C111.109 34.7428 110.796 34.5605 110.393 34.3848C109.995 34.2025 109.488 34.0169 108.869 33.8281C108.192 33.6198 107.567 33.3887 106.994 33.1348C106.428 32.8743 105.933 32.5749 105.51 32.2363C105.087 31.8913 104.758 31.4974 104.523 31.0547C104.289 30.6055 104.172 30.0879 104.172 29.502C104.172 28.9225 104.292 28.3952 104.533 27.9199C104.781 27.4447 105.129 27.0345 105.578 26.6895C106.034 26.3379 106.571 26.0677 107.189 25.8789C107.808 25.6836 108.492 25.5859 109.24 25.5859C110.295 25.5859 111.203 25.7812 111.965 26.1719C112.733 26.5625 113.322 27.0866 113.732 27.7441C114.149 28.4017 114.357 29.1276 114.357 29.9219H111.926C111.926 29.4531 111.825 29.0397 111.623 28.6816C111.428 28.3171 111.128 28.0306 110.725 27.8223C110.327 27.6139 109.823 27.5098 109.211 27.5098C108.632 27.5098 108.15 27.5977 107.766 27.7734C107.382 27.9492 107.095 28.1868 106.906 28.4863C106.717 28.7858 106.623 29.1243 106.623 29.502C106.623 29.7689 106.685 30.013 106.809 30.2344C106.932 30.4492 107.121 30.651 107.375 30.8398C107.629 31.0221 107.948 31.1947 108.332 31.3574C108.716 31.5202 109.169 31.6764 109.689 31.8262C110.477 32.0605 111.164 32.321 111.75 32.6074C112.336 32.8874 112.824 33.2064 113.215 33.5645C113.605 33.9225 113.898 34.3294 114.094 34.7852C114.289 35.2344 114.387 35.7454 114.387 36.3184C114.387 36.9173 114.266 37.4577 114.025 37.9395C113.785 38.4147 113.439 38.8216 112.99 39.1602C112.548 39.4922 112.014 39.7493 111.389 39.9316C110.77 40.1074 110.08 40.1953 109.318 40.1953C108.635 40.1953 107.961 40.1042 107.297 39.9219C106.639 39.7396 106.04 39.4629 105.5 39.0918C104.96 38.7142 104.53 38.2454 104.211 37.6855C103.892 37.1191 103.732 36.4583 103.732 35.7031H106.184C106.184 36.1654 106.262 36.5592 106.418 36.8848C106.581 37.2103 106.805 37.4772 107.092 37.6855C107.378 37.8874 107.71 38.0371 108.088 38.1348C108.472 38.2324 108.882 38.2812 109.318 38.2812C109.891 38.2812 110.37 38.1999 110.754 38.0371C111.145 37.8743 111.438 37.6465 111.633 37.3535C111.828 37.0605 111.926 36.722 111.926 36.3379ZM118.84 29.4336V40H116.477V29.4336H118.84ZM116.32 26.6602C116.32 26.3021 116.438 26.0059 116.672 25.7715C116.913 25.5306 117.245 25.4102 117.668 25.4102C118.085 25.4102 118.413 25.5306 118.654 25.7715C118.895 26.0059 119.016 26.3021 119.016 26.6602C119.016 27.0117 118.895 27.3047 118.654 27.5391C118.413 27.7734 118.085 27.8906 117.668 27.8906C117.245 27.8906 116.913 27.7734 116.672 27.5391C116.438 27.3047 116.32 27.0117 116.32 26.6602ZM128.186 29.4336H130.324V39.707C130.324 40.6576 130.122 41.4648 129.719 42.1289C129.315 42.793 128.752 43.2975 128.029 43.6426C127.307 43.9941 126.47 44.1699 125.52 44.1699C125.116 44.1699 124.667 44.1113 124.172 43.9941C123.684 43.877 123.208 43.6882 122.746 43.4277C122.29 43.1738 121.91 42.8385 121.604 42.4219L122.707 41.0352C123.085 41.4844 123.501 41.8132 123.957 42.0215C124.413 42.2298 124.891 42.334 125.393 42.334C125.933 42.334 126.392 42.2331 126.77 42.0312C127.154 41.8359 127.45 41.5462 127.658 41.1621C127.867 40.778 127.971 40.3092 127.971 39.7559V31.8262L128.186 29.4336ZM121.008 34.834V34.6289C121.008 33.8281 121.105 33.099 121.301 32.4414C121.496 31.7773 121.776 31.2077 122.141 30.7324C122.505 30.2507 122.948 29.8828 123.469 29.6289C123.99 29.3685 124.579 29.2383 125.236 29.2383C125.92 29.2383 126.503 29.362 126.984 29.6094C127.473 29.8568 127.88 30.2116 128.205 30.6738C128.531 31.1296 128.785 31.6764 128.967 32.3145C129.156 32.946 129.296 33.6491 129.387 34.4238V35.0781C129.302 35.8333 129.159 36.5234 128.957 37.1484C128.755 37.7734 128.488 38.3138 128.156 38.7695C127.824 39.2253 127.414 39.5768 126.926 39.8242C126.444 40.0716 125.874 40.1953 125.217 40.1953C124.572 40.1953 123.99 40.0618 123.469 39.7949C122.954 39.528 122.512 39.1536 122.141 38.6719C121.776 38.1901 121.496 37.6237 121.301 36.9727C121.105 36.3151 121.008 35.6022 121.008 34.834ZM123.361 34.6289V34.834C123.361 35.3158 123.407 35.765 123.498 36.1816C123.596 36.5983 123.742 36.9661 123.938 37.2852C124.139 37.5977 124.393 37.8451 124.699 38.0273C125.012 38.2031 125.38 38.291 125.803 38.291C126.356 38.291 126.809 38.1738 127.16 37.9395C127.518 37.7051 127.792 37.3893 127.98 36.9922C128.176 36.5885 128.312 36.1393 128.391 35.6445V33.877C128.352 33.4928 128.27 33.1348 128.146 32.8027C128.029 32.4707 127.87 32.181 127.668 31.9336C127.466 31.6797 127.212 31.4844 126.906 31.3477C126.6 31.2044 126.239 31.1328 125.822 31.1328C125.399 31.1328 125.031 31.224 124.719 31.4062C124.406 31.5885 124.149 31.8392 123.947 32.1582C123.752 32.4772 123.605 32.8483 123.508 33.2715C123.41 33.6947 123.361 34.1471 123.361 34.6289ZM135.1 31.6895V40H132.746V29.4336H134.963L135.1 31.6895ZM134.68 34.3262L133.918 34.3164C133.924 33.5677 134.029 32.8809 134.23 32.2559C134.439 31.6309 134.725 31.0938 135.09 30.6445C135.461 30.1953 135.904 29.8503 136.418 29.6094C136.932 29.362 137.505 29.2383 138.137 29.2383C138.645 29.2383 139.104 29.3099 139.514 29.4531C139.93 29.5898 140.285 29.8145 140.578 30.127C140.878 30.4395 141.105 30.8464 141.262 31.3477C141.418 31.8424 141.496 32.4512 141.496 33.1738V40H139.133V33.1641C139.133 32.6562 139.058 32.2559 138.908 31.9629C138.765 31.6634 138.553 31.4518 138.273 31.3281C138 31.1979 137.658 31.1328 137.248 31.1328C136.844 31.1328 136.483 31.2174 136.164 31.3867C135.845 31.556 135.575 31.7871 135.354 32.0801C135.139 32.373 134.973 32.7116 134.855 33.0957C134.738 33.4798 134.68 33.89 134.68 34.3262ZM151.398 29.4336V40H149.035V29.4336H151.398ZM148.879 26.6602C148.879 26.3021 148.996 26.0059 149.23 25.7715C149.471 25.5306 149.803 25.4102 150.227 25.4102C150.643 25.4102 150.972 25.5306 151.213 25.7715C151.454 26.0059 151.574 26.3021 151.574 26.6602C151.574 27.0117 151.454 27.3047 151.213 27.5391C150.972 27.7734 150.643 27.8906 150.227 27.8906C149.803 27.8906 149.471 27.7734 149.23 27.5391C148.996 27.3047 148.879 27.0117 148.879 26.6602ZM156.311 31.6895V40H153.957V29.4336H156.174L156.311 31.6895ZM155.891 34.3262L155.129 34.3164C155.135 33.5677 155.24 32.8809 155.441 32.2559C155.65 31.6309 155.936 31.0938 156.301 30.6445C156.672 30.1953 157.115 29.8503 157.629 29.6094C158.143 29.362 158.716 29.2383 159.348 29.2383C159.855 29.2383 160.314 29.3099 160.725 29.4531C161.141 29.5898 161.496 29.8145 161.789 30.127C162.089 30.4395 162.316 30.8464 162.473 31.3477C162.629 31.8424 162.707 32.4512 162.707 33.1738V40H160.344V33.1641C160.344 32.6562 160.269 32.2559 160.119 31.9629C159.976 31.6634 159.764 31.4518 159.484 31.3281C159.211 31.1979 158.869 31.1328 158.459 31.1328C158.055 31.1328 157.694 31.2174 157.375 31.3867C157.056 31.556 156.786 31.7871 156.564 32.0801C156.35 32.373 156.184 32.7116 156.066 33.0957C155.949 33.4798 155.891 33.89 155.891 34.3262ZM172.961 37.6562L175.402 29.4336H176.906L176.496 31.8945L174.035 40H172.688L172.961 37.6562ZM171.525 29.4336L173.43 37.6953L173.586 40H172.082L169.221 29.4336H171.525ZM179.191 37.5977L181.037 29.4336H183.332L180.48 40H178.977L179.191 37.5977ZM177.16 29.4336L179.572 37.5586L179.875 40H178.527L176.037 31.8848L175.627 29.4336H177.16ZM187.453 29.4336V40H185.09V29.4336H187.453ZM184.934 26.6602C184.934 26.3021 185.051 26.0059 185.285 25.7715C185.526 25.5306 185.858 25.4102 186.281 25.4102C186.698 25.4102 187.027 25.5306 187.268 25.7715C187.508 26.0059 187.629 26.3021 187.629 26.6602C187.629 27.0117 187.508 27.3047 187.268 27.5391C187.027 27.7734 186.698 27.8906 186.281 27.8906C185.858 27.8906 185.526 27.7734 185.285 27.5391C185.051 27.3047 184.934 27.0117 184.934 26.6602ZM194.875 29.4336V31.1523H188.918V29.4336H194.875ZM190.637 26.8457H192.99V37.0801C192.99 37.4056 193.036 37.6562 193.127 37.832C193.225 38.0013 193.358 38.1152 193.527 38.1738C193.697 38.2324 193.895 38.2617 194.123 38.2617C194.286 38.2617 194.442 38.252 194.592 38.2324C194.742 38.2129 194.862 38.1934 194.953 38.1738L194.963 39.9707C194.768 40.0293 194.54 40.0814 194.279 40.127C194.025 40.1725 193.732 40.1953 193.4 40.1953C192.86 40.1953 192.382 40.1009 191.965 39.9121C191.548 39.7168 191.223 39.401 190.988 38.9648C190.754 38.5286 190.637 37.9492 190.637 37.2266V26.8457ZM199.016 25V40H196.672V25H199.016ZM198.605 34.3262L197.844 34.3164C197.85 33.5872 197.951 32.9134 198.146 32.2949C198.348 31.6764 198.628 31.1393 198.986 30.6836C199.351 30.2214 199.787 29.8665 200.295 29.6191C200.803 29.3652 201.366 29.2383 201.984 29.2383C202.505 29.2383 202.974 29.3099 203.391 29.4531C203.814 29.5964 204.178 29.8275 204.484 30.1465C204.79 30.459 205.021 30.8691 205.178 31.377C205.34 31.8783 205.422 32.4902 205.422 33.2129V40H203.059V33.1934C203.059 32.6855 202.984 32.2819 202.834 31.9824C202.691 31.6829 202.479 31.4681 202.199 31.3379C201.919 31.2012 201.577 31.1328 201.174 31.1328C200.751 31.1328 200.376 31.2174 200.051 31.3867C199.732 31.556 199.465 31.7871 199.25 32.0801C199.035 32.373 198.872 32.7116 198.762 33.0957C198.658 33.4798 198.605 33.89 198.605 34.3262ZM223.938 32.7344V38.1641C223.736 38.431 223.42 38.724 222.99 39.043C222.567 39.3555 222.004 39.6257 221.301 39.8535C220.598 40.0814 219.722 40.1953 218.674 40.1953C217.782 40.1953 216.965 40.0456 216.223 39.7461C215.48 39.4401 214.839 38.9941 214.299 38.4082C213.765 37.8223 213.352 37.1094 213.059 36.2695C212.766 35.4232 212.619 34.4596 212.619 33.3789V32.3926C212.619 31.3184 212.753 30.3613 213.02 29.5215C213.293 28.6751 213.684 27.959 214.191 27.373C214.699 26.7871 215.311 26.3444 216.027 26.0449C216.75 25.7389 217.567 25.5859 218.479 25.5859C219.644 25.5859 220.607 25.7812 221.369 26.1719C222.137 26.556 222.73 27.0898 223.146 27.7734C223.563 28.457 223.827 29.2383 223.938 30.1172H221.535C221.457 29.6224 221.304 29.1797 221.076 28.7891C220.855 28.3984 220.536 28.0924 220.119 27.8711C219.709 27.6432 219.175 27.5293 218.518 27.5293C217.951 27.5293 217.453 27.6367 217.023 27.8516C216.594 28.0664 216.236 28.3822 215.949 28.7988C215.669 29.2155 215.458 29.7233 215.314 30.3223C215.171 30.9212 215.1 31.6048 215.1 32.373V33.3789C215.1 34.1602 215.181 34.8535 215.344 35.459C215.513 36.0645 215.754 36.5755 216.066 36.9922C216.385 37.4089 216.773 37.7246 217.229 37.9395C217.684 38.1478 218.199 38.252 218.771 38.252C219.331 38.252 219.79 38.2064 220.148 38.1152C220.507 38.0176 220.79 37.9036 220.998 37.7734C221.213 37.6367 221.379 37.5065 221.496 37.3828V34.5605H218.537V32.7344H223.938ZM225.969 34.834V34.6094C225.969 33.8477 226.079 33.1413 226.301 32.4902C226.522 31.8327 226.841 31.263 227.258 30.7812C227.681 30.293 228.195 29.9154 228.801 29.6484C229.413 29.375 230.103 29.2383 230.871 29.2383C231.646 29.2383 232.336 29.375 232.941 29.6484C233.553 29.9154 234.071 30.293 234.494 30.7812C234.917 31.263 235.24 31.8327 235.461 32.4902C235.682 33.1413 235.793 33.8477 235.793 34.6094V34.834C235.793 35.5957 235.682 36.3021 235.461 36.9531C235.24 37.6042 234.917 38.1738 234.494 38.6621C234.071 39.1439 233.557 39.5215 232.951 39.7949C232.346 40.0618 231.659 40.1953 230.891 40.1953C230.116 40.1953 229.423 40.0618 228.811 39.7949C228.205 39.5215 227.691 39.1439 227.268 38.6621C226.844 38.1738 226.522 37.6042 226.301 36.9531C226.079 36.3021 225.969 35.5957 225.969 34.834ZM228.322 34.6094V34.834C228.322 35.3092 228.371 35.7585 228.469 36.1816C228.566 36.6048 228.719 36.9759 228.928 37.2949C229.136 37.6139 229.403 37.8646 229.729 38.0469C230.054 38.2292 230.441 38.3203 230.891 38.3203C231.327 38.3203 231.704 38.2292 232.023 38.0469C232.349 37.8646 232.616 37.6139 232.824 37.2949C233.033 36.9759 233.186 36.6048 233.283 36.1816C233.387 35.7585 233.439 35.3092 233.439 34.834V34.6094C233.439 34.1406 233.387 33.6979 233.283 33.2812C233.186 32.8581 233.029 32.4837 232.814 32.1582C232.606 31.8327 232.339 31.5788 232.014 31.3965C231.695 31.2077 231.314 31.1133 230.871 31.1133C230.428 31.1133 230.044 31.2077 229.719 31.3965C229.4 31.5788 229.136 31.8327 228.928 32.1582C228.719 32.4837 228.566 32.8581 228.469 33.2812C228.371 33.6979 228.322 34.1406 228.322 34.6094ZM237.316 34.834V34.6094C237.316 33.8477 237.427 33.1413 237.648 32.4902C237.87 31.8327 238.189 31.263 238.605 30.7812C239.029 30.293 239.543 29.9154 240.148 29.6484C240.76 29.375 241.451 29.2383 242.219 29.2383C242.993 29.2383 243.684 29.375 244.289 29.6484C244.901 29.9154 245.419 30.293 245.842 30.7812C246.265 31.263 246.587 31.8327 246.809 32.4902C247.03 33.1413 247.141 33.8477 247.141 34.6094V34.834C247.141 35.5957 247.03 36.3021 246.809 36.9531C246.587 37.6042 246.265 38.1738 245.842 38.6621C245.419 39.1439 244.904 39.5215 244.299 39.7949C243.693 40.0618 243.007 40.1953 242.238 40.1953C241.464 40.1953 240.77 40.0618 240.158 39.7949C239.553 39.5215 239.038 39.1439 238.615 38.6621C238.192 38.1738 237.87 37.6042 237.648 36.9531C237.427 36.3021 237.316 35.5957 237.316 34.834ZM239.67 34.6094V34.834C239.67 35.3092 239.719 35.7585 239.816 36.1816C239.914 36.6048 240.067 36.9759 240.275 37.2949C240.484 37.6139 240.751 37.8646 241.076 38.0469C241.402 38.2292 241.789 38.3203 242.238 38.3203C242.674 38.3203 243.052 38.2292 243.371 38.0469C243.697 37.8646 243.964 37.6139 244.172 37.2949C244.38 36.9759 244.533 36.6048 244.631 36.1816C244.735 35.7585 244.787 35.3092 244.787 34.834V34.6094C244.787 34.1406 244.735 33.6979 244.631 33.2812C244.533 32.8581 244.377 32.4837 244.162 32.1582C243.954 31.8327 243.687 31.5788 243.361 31.3965C243.042 31.2077 242.661 31.1133 242.219 31.1133C241.776 31.1133 241.392 31.2077 241.066 31.3965C240.747 31.5788 240.484 31.8327 240.275 32.1582C240.067 32.4837 239.914 32.8581 239.816 33.2812C239.719 33.6979 239.67 34.1406 239.67 34.6094ZM255.881 29.4336H258.02V39.707C258.02 40.6576 257.818 41.4648 257.414 42.1289C257.01 42.793 256.447 43.2975 255.725 43.6426C255.002 43.9941 254.165 44.1699 253.215 44.1699C252.811 44.1699 252.362 44.1113 251.867 43.9941C251.379 43.877 250.904 43.6882 250.441 43.4277C249.986 43.1738 249.605 42.8385 249.299 42.4219L250.402 41.0352C250.78 41.4844 251.197 41.8132 251.652 42.0215C252.108 42.2298 252.587 42.334 253.088 42.334C253.628 42.334 254.087 42.2331 254.465 42.0312C254.849 41.8359 255.145 41.5462 255.354 41.1621C255.562 40.778 255.666 40.3092 255.666 39.7559V31.8262L255.881 29.4336ZM248.703 34.834V34.6289C248.703 33.8281 248.801 33.099 248.996 32.4414C249.191 31.7773 249.471 31.2077 249.836 30.7324C250.201 30.2507 250.643 29.8828 251.164 29.6289C251.685 29.3685 252.274 29.2383 252.932 29.2383C253.615 29.2383 254.198 29.362 254.68 29.6094C255.168 29.8568 255.575 30.2116 255.9 30.6738C256.226 31.1296 256.48 31.6764 256.662 32.3145C256.851 32.946 256.991 33.6491 257.082 34.4238V35.0781C256.997 35.8333 256.854 36.5234 256.652 37.1484C256.451 37.7734 256.184 38.3138 255.852 38.7695C255.52 39.2253 255.109 39.5768 254.621 39.8242C254.139 40.0716 253.57 40.1953 252.912 40.1953C252.268 40.1953 251.685 40.0618 251.164 39.7949C250.65 39.528 250.207 39.1536 249.836 38.6719C249.471 38.1901 249.191 37.6237 248.996 36.9727C248.801 36.3151 248.703 35.6022 248.703 34.834ZM251.057 34.6289V34.834C251.057 35.3158 251.102 35.765 251.193 36.1816C251.291 36.5983 251.438 36.9661 251.633 37.2852C251.835 37.5977 252.089 37.8451 252.395 38.0273C252.707 38.2031 253.075 38.291 253.498 38.291C254.051 38.291 254.504 38.1738 254.855 37.9395C255.214 37.7051 255.487 37.3893 255.676 36.9922C255.871 36.5885 256.008 36.1393 256.086 35.6445V33.877C256.047 33.4928 255.965 33.1348 255.842 32.8027C255.725 32.4707 255.565 32.181 255.363 31.9336C255.161 31.6797 254.908 31.4844 254.602 31.3477C254.296 31.2044 253.934 31.1328 253.518 31.1328C253.094 31.1328 252.727 31.224 252.414 31.4062C252.102 31.5885 251.844 31.8392 251.643 32.1582C251.447 32.4772 251.301 32.8483 251.203 33.2715C251.105 33.6947 251.057 34.1471 251.057 34.6289ZM262.98 25V40H260.617V25H262.98ZM270.217 40.1953C269.436 40.1953 268.729 40.0684 268.098 39.8145C267.473 39.554 266.939 39.1927 266.496 38.7305C266.06 38.2682 265.725 37.7246 265.49 37.0996C265.256 36.4746 265.139 35.8008 265.139 35.0781V34.6875C265.139 33.8607 265.259 33.112 265.5 32.4414C265.741 31.7708 266.076 31.1979 266.506 30.7227C266.936 30.2409 267.443 29.873 268.029 29.6191C268.615 29.3652 269.25 29.2383 269.934 29.2383C270.689 29.2383 271.35 29.3652 271.916 29.6191C272.482 29.873 272.951 30.2311 273.322 30.6934C273.7 31.1491 273.98 31.6927 274.162 32.3242C274.351 32.9557 274.445 33.6523 274.445 34.4141V35.4199H266.281V33.7305H272.121V33.5449C272.108 33.1217 272.023 32.7246 271.867 32.3535C271.717 31.9824 271.486 31.6829 271.174 31.4551C270.861 31.2272 270.445 31.1133 269.924 31.1133C269.533 31.1133 269.185 31.1979 268.879 31.3672C268.579 31.5299 268.329 31.7676 268.127 32.0801C267.925 32.3926 267.769 32.7702 267.658 33.2129C267.554 33.6491 267.502 34.1406 267.502 34.6875V35.0781C267.502 35.5404 267.564 35.9701 267.688 36.3672C267.818 36.7578 268.007 37.0996 268.254 37.3926C268.501 37.6855 268.801 37.9167 269.152 38.0859C269.504 38.2487 269.904 38.3301 270.354 38.3301C270.92 38.3301 271.424 38.2161 271.867 37.9883C272.31 37.7604 272.694 37.4382 273.02 37.0215L274.26 38.2227C274.032 38.5547 273.736 38.8737 273.371 39.1797C273.007 39.4792 272.561 39.7233 272.033 39.9121C271.512 40.1009 270.907 40.1953 270.217 40.1953Z" fill="#1F1F1F"/>
</svg>
