<svg width="144" height="238" viewBox="0 0 144 238" fill="none" xmlns="http://www.w3.org/2000/svg">
<path d="M67.2584 78.5429C67.2584 78.5429 30.9204 73.3427 39.4169 28.5671C39.4169 28.4726 80.0097 37.8194 67.2584 78.5429Z" fill="#9FFF9E"/>
<path opacity="0.1" d="M67.2584 78.5429C67.2584 78.5429 30.9204 73.3427 39.4169 28.5671C39.4169 28.4726 80.0097 37.8194 67.2584 78.5429Z" fill="black"/>
<path d="M65.4217 69.1826C64.7081 66.9134 63.8757 64.6847 62.9507 62.4966C62.9507 62.213 62.8714 61.9293 62.845 61.6457C62.845 61.0379 62.7525 60.4165 62.6996 59.7952C62.5939 58.4445 62.5146 57.0938 62.4353 55.7431C62.29 53.0417 62.1182 50.3404 62.0786 47.7065C62.0705 47.6827 62.0553 47.662 62.0351 47.6474C62.015 47.6327 61.9909 47.6249 61.9662 47.6249C61.9415 47.6249 61.9175 47.6327 61.8973 47.6474C61.8772 47.662 61.862 47.6827 61.8539 47.7065C61.8539 50.4079 61.8539 53.1093 61.8539 55.8107C61.8539 57.1614 61.9861 58.5121 62.0653 59.8628C62.0653 60.1599 62.0653 60.4571 62.1314 60.7542C60.091 56.294 57.6538 52.0349 54.8506 48.0306C53.5953 46.2477 52.2871 44.5323 50.8865 42.8845C49.4858 41.2366 47.9133 39.5753 46.4466 37.9004C46.3541 37.7924 46.1955 37.9004 46.288 38.0625C48.8939 40.9941 51.2377 44.1584 53.2914 47.5174C54.4013 49.2328 55.432 50.9752 56.4362 52.7581L56.0927 52.623C55.6567 52.4474 55.2338 52.2583 54.7713 52.0963C53.7803 51.7046 52.7892 51.3128 51.8114 50.9482C49.8558 50.2053 47.8473 49.4759 45.9577 48.7195C45.8388 48.7195 45.7595 48.8816 45.8784 48.9356C47.8076 49.719 49.7236 50.5565 51.6264 51.3939L54.441 52.623L55.8681 53.2308C56.1744 53.3877 56.4983 53.5056 56.8327 53.582C57.5594 54.9327 58.2862 56.2834 58.9601 57.6341C60.6432 61.1082 62.1257 64.6802 63.4 68.3316L63.651 69.1015C62.6991 68.5322 61.705 68.04 60.6779 67.6293L56.9252 65.8869C54.3749 64.6847 51.8378 63.4691 49.3933 62.0644C49.2744 62.0644 49.1687 62.186 49.2876 62.267C51.785 63.6177 54.2295 65.144 56.7402 66.5217C57.9823 67.224 59.2376 67.8724 60.5193 68.5207C61.5794 69.1509 62.7299 69.6067 63.9285 69.8714C65.1457 73.2696 65.949 76.808 66.3202 80.4068C66.7166 85.4719 66.677 90.5776 66.7959 95.6697C66.7959 95.7508 66.9148 95.7508 66.928 95.6697C67.2848 91.0638 67.483 86.4174 67.5094 81.7846C67.4701 77.4974 66.7654 73.2439 65.4217 69.1826Z" fill="#263238"/>
<path d="M59.819 42.817C59.4758 45.4353 59.3565 48.0792 59.4622 50.7186H59.5679C59.7133 48.0983 59.7397 45.4779 60.0436 42.8711C60.004 42.7225 59.8454 42.6684 59.819 42.817Z" fill="#263238"/>
<path d="M49.4329 45.0592C47.8085 44.4292 46.2466 43.6422 44.7684 42.709C44.6495 42.6279 44.5306 42.8305 44.6627 42.9116C46.1319 43.919 47.7396 44.6974 49.4329 45.2213C49.4329 45.2483 49.5254 45.0997 49.4329 45.0592Z" fill="#263238"/>
<path d="M68.408 149.711C68.408 145.659 68.3023 141.499 68.2626 137.406C68.1833 123.778 68.0776 110.149 67.8398 96.5207C67.6372 85.7152 67.3905 74.9096 67.0998 64.104C67.0992 64.0747 67.0901 64.0462 67.0736 64.0222C67.0571 63.9981 67.034 63.9796 67.0073 63.9689C67.0073 61.0154 67.0073 58.0574 67.0073 55.0949C67.0073 55.0273 66.9281 54.9868 66.8356 54.9868C66.7431 54.9868 66.6638 54.9868 66.6638 55.1084C66.6638 58.0664 66.6638 61.0244 66.6638 63.9824C66.6638 63.9824 66.5845 64.05 66.5845 64.1175C66.0427 83.3649 65.567 102.626 65.4613 121.887C65.4613 125.804 65.4613 129.721 65.4613 133.638C65.3292 146.19 65.2807 158.743 65.3159 171.295V177.292C65.3159 188.787 65.4349 200.254 65.4349 211.762C65.4349 212.383 66.1088 212.694 66.7562 212.721C67.4037 212.748 68.4344 212.424 68.4344 211.708C68.4344 199.039 68.5269 186.369 68.5269 173.699C68.4476 165.676 68.474 157.694 68.408 149.711Z" fill="#263238"/>
<path d="M53.2385 137.244C53.2385 137.244 35.7698 124.007 19.1865 132.949C2.60311 141.891 0 176.36 0 176.36C0 176.36 24.3531 179.926 39.6415 165.001C54.4674 150.63 53.2385 137.244 53.2385 137.244Z" fill="#9FFF9E"/>
<path d="M58.0087 138.055C54.7934 136.766 51.3182 136.302 47.887 136.704C47.1792 136.583 46.4638 136.515 45.7463 136.501L43.2753 136.312L38.188 135.934C34.7392 135.677 31.2772 135.461 27.8416 135.11C27.7095 135.11 27.6963 135.313 27.8416 135.326C31.2508 135.772 34.6335 136.272 38.0559 136.677C39.8001 136.852 41.5576 137.042 43.3414 137.177L44.6628 137.298C44.1475 137.42 43.6321 137.541 43.1168 137.69C40.3699 138.506 37.713 139.61 35.1885 140.986C33.8671 141.229 32.44 141.62 31.0922 141.958C28.9251 142.471 26.7713 143.039 24.6307 143.619C20.389 144.754 16.187 146.037 11.9718 147.28C11.9579 147.284 11.945 147.291 11.9338 147.301C11.9227 147.311 11.9135 147.322 11.9067 147.335C11.9 147.349 11.8958 147.363 11.8945 147.378C11.8932 147.393 11.8948 147.408 11.8991 147.422C11.9035 147.436 11.9105 147.449 11.9198 147.46C11.9291 147.472 11.9406 147.481 11.9534 147.488C11.9663 147.495 11.9804 147.499 11.9949 147.501C12.0094 147.502 12.024 147.5 12.0379 147.496C16.2531 146.442 20.4815 145.483 24.6967 144.457C26.7449 143.957 28.793 143.471 30.8411 142.944L32.44 142.566C27.7471 145.545 23.5533 149.275 20.019 153.615C16.6112 157.884 13.7145 162.555 11.3904 167.527C11.3904 167.648 11.5093 167.77 11.5754 167.648C14.4479 162.53 17.9616 157.817 22.0275 153.628L21.7897 154.344C21.4725 155.398 21.1422 156.451 20.8251 157.505C20.1776 159.612 19.5037 161.705 18.909 163.826C18.909 163.961 19.0808 164.001 19.1205 163.826C19.8604 161.786 20.5608 159.774 21.2611 157.68C21.6047 156.681 21.9482 155.668 22.305 154.668L22.8203 153.101L22.9921 152.615C24.9422 150.68 27.0123 148.875 29.1894 147.212C32.0628 145.06 35.1659 143.247 38.4391 141.81C38.373 142.12 38.3201 142.431 38.2673 142.728C38.0955 143.538 37.9105 144.349 37.752 145.173C37.4084 146.861 37.0913 148.55 36.7609 150.251C36.1002 153.709 35.6906 157.207 35.0563 160.665C35.0645 160.689 35.0796 160.71 35.0998 160.724C35.1199 160.739 35.144 160.747 35.1686 160.747C35.1933 160.747 35.2174 160.739 35.2376 160.724C35.2577 160.71 35.2729 160.689 35.281 160.665C36.0606 157.194 37.0648 153.763 37.8313 150.278C38.2145 148.536 38.5976 146.794 38.9412 145.051C39.113 144.241 39.2715 143.417 39.4301 142.606C39.5226 142.147 39.6283 141.688 39.6812 141.256C39.9983 141.134 40.3022 140.986 40.6326 140.864C45.2046 139.122 50.2787 137.866 55.1678 138.825C57.489 139.257 59.6693 140.27 61.514 141.774C63.3586 143.277 64.8101 145.225 65.7388 147.442C65.8974 147.834 66.492 147.591 66.4128 147.185C65.3556 142.904 61.8408 139.702 58.0087 138.055Z" fill="#263238"/>
<path d="M31.2508 152.737L29.7841 159.49C29.2298 161.661 28.8193 163.868 28.5552 166.095C28.5552 166.176 28.6741 166.176 28.7005 166.095C29.34 163.912 29.8345 161.687 30.1805 159.436C30.6165 157.208 31.0393 154.979 31.5018 152.683C31.4948 152.649 31.4749 152.619 31.4464 152.6C31.4179 152.581 31.3832 152.574 31.3499 152.581C31.3166 152.589 31.2875 152.609 31.2689 152.638C31.2503 152.667 31.2438 152.703 31.2508 152.737Z" fill="#263238"/>
<path d="M14.3503 158.531C12.1304 159.693 9.97652 161.003 7.65089 161.948C7.62461 161.961 7.60427 161.984 7.59436 162.011C7.58444 162.039 7.58576 162.07 7.59803 162.097C7.61029 162.124 7.6325 162.145 7.65976 162.155C7.68702 162.165 7.71711 162.164 7.7434 162.151C10.0024 161.09 12.2075 159.914 14.3503 158.626V158.531Z" fill="#263238"/>
<path d="M57.1763 112.945C57.1763 112.945 35.8095 114.296 25.8728 99.938C15.936 85.58 18.1691 64.9414 18.1691 64.9414C18.1691 64.9414 40.6326 67.7238 49.5123 78.0702C58.3919 88.4165 57.1763 112.945 57.1763 112.945Z" fill="#9FFF9E"/>
<path d="M67.1923 134.475C66.4523 132.138 65.5406 129.842 64.6817 127.546C63.8228 125.25 62.9639 123.156 62.0389 120.995C60.1298 116.597 57.995 112.305 55.6434 108.137C54.1371 105.435 52.525 102.909 50.86 100.37C50.86 99.9919 50.7543 99.6002 50.6883 99.2085C50.5958 98.5331 50.5033 97.8578 50.3976 97.1824C50.1861 95.8317 49.9483 94.4811 49.7236 93.0493C49.2215 90.0238 48.6137 87.0387 48.1512 84.0132C48.1512 83.8781 47.9133 83.8781 47.9265 84.0132C48.3626 86.9847 48.6533 89.9832 49.0629 92.9683C49.2612 94.427 49.4461 95.8993 49.6708 97.358L49.9086 98.9384C46.6388 94.0749 43.1098 89.3989 39.3376 84.9316L37.7783 83.1487C37.7783 82.9866 37.633 82.8245 37.5801 82.649L37.1045 81.4063L36.1795 78.7995C35.5848 77.0841 35.0431 75.3687 34.5938 73.6128C34.5938 73.5841 34.5827 73.5567 34.5629 73.5364C34.543 73.5161 34.5161 73.5047 34.4881 73.5047C34.4601 73.5047 34.4332 73.5161 34.4133 73.5364C34.3935 73.5567 34.3824 73.5841 34.3824 73.6128C34.8184 75.4092 35.2677 77.2056 35.7831 79.0156C36.0341 79.8665 36.2984 80.7039 36.6023 81.5414C36.6023 81.69 36.6948 81.825 36.7477 81.9736C34.0256 78.921 31.1714 75.99 28.2908 73.0995C28.1983 72.9915 28.0398 73.0995 28.1455 73.2616C33.6592 79.1557 38.7176 85.4779 43.2753 92.1714C42.7572 91.9967 42.2272 91.8613 41.6897 91.7662C40.0511 91.442 38.3862 91.1989 36.7345 90.9827C33.246 90.5235 29.784 90.0778 26.322 89.524C26.1766 89.524 26.1238 89.7131 26.322 89.7401C29.6254 90.402 32.9289 91.1719 36.1927 91.9418C37.7387 92.3064 39.2979 92.6171 40.8572 92.9278C42.1301 93.2082 43.3837 93.5737 44.6099 94.0218C44.9535 94.5216 45.3102 95.0213 45.6538 95.5346C47.2262 97.8578 48.7194 100.249 50.1993 102.639L48.019 102.207C46.3673 101.883 44.7156 101.572 43.0507 101.289C39.8001 100.748 36.5362 100.167 33.3121 99.4246C33.1799 99.4246 33.1271 99.6002 33.3121 99.6407C36.5891 100.424 39.8133 101.343 43.0639 102.221C44.6231 102.644 46.1955 103.035 47.7812 103.396L50.1597 103.922C50.4715 104.005 50.7899 104.059 51.1111 104.085C54.2295 109.262 57.1498 114.552 59.8718 119.955C61.0611 122.319 62.2107 124.723 63.3207 127.141C64.4306 129.559 65.4481 132.152 66.492 134.664C66.6109 135.178 67.3641 135.029 67.1923 134.475Z" fill="#263238"/>
<path d="M45.3366 84.3104C44.927 82.2303 44.4909 80.1503 44.0152 78.0702C44.0152 77.9351 43.7774 78.0027 43.8038 78.1377C44.2134 80.1908 44.5966 82.1898 44.9666 84.2834C45.2669 86.3423 45.6683 88.3844 46.1691 90.4021H46.2351C46.0815 88.3518 45.7812 86.3158 45.3366 84.3104Z" fill="#263238"/>
<path d="M32.8761 83.7026C31.8774 83.1994 30.8541 82.7486 29.8105 82.3519L28.1852 81.7036L27.3659 81.3659C27.052 81.2671 26.7504 81.1311 26.4674 80.9607C26.2956 80.8391 26.2031 81.1228 26.3617 81.1498C26.6804 81.2409 26.9867 81.3725 27.2734 81.5415L28.0795 81.9062L29.6387 82.6085C30.6625 83.1264 31.7173 83.5775 32.7968 83.9592C32.9157 83.9592 32.995 83.7566 32.8761 83.7026Z" fill="#263238"/>
<path d="M79.0319 95.7778C79.0319 95.7778 91.955 71.0871 111.617 67.2781C131.279 63.4692 143.33 84.1348 143.33 84.1348C143.33 84.1348 128.993 102.855 110.943 106.124C92.8932 109.393 79.0319 95.7778 79.0319 95.7778Z" fill="#9FFF9E"/>
<path d="M124.752 78.3269C119.629 77.6333 114.436 77.6969 109.331 78.516L110.203 78.0432L114.564 75.747C117.59 74.1397 120.642 72.4243 123.814 71.1276C123.827 71.1214 123.838 71.1127 123.848 71.1018C123.858 71.091 123.865 71.0783 123.87 71.0645C123.875 71.0507 123.877 71.0361 123.877 71.0214C123.876 71.0068 123.872 70.9924 123.866 70.9791C123.86 70.9658 123.852 70.9538 123.841 70.9439C123.831 70.934 123.818 70.9263 123.805 70.9213C123.791 70.9163 123.777 70.914 123.763 70.9147C123.748 70.9153 123.734 70.9188 123.721 70.925C120.642 72.3973 117.458 73.6264 114.366 75.0717C112.833 75.801 111.313 76.5574 109.807 77.3679C108.842 77.8946 107.759 78.3809 106.807 79.0157C102.488 79.9074 98.2907 81.3315 94.3071 83.2569L96.7649 80.5555C98.6016 78.5024 100.412 76.3413 102.42 74.4774C102.526 74.3828 102.42 74.2207 102.262 74.3153C100.2 76.2333 98.0334 78.0027 96.0381 79.9882C95.0603 80.9472 94.1353 81.9467 93.2368 82.9733C92.7875 83.4865 92.3382 84.0133 91.9154 84.5671C85.1609 88.2604 79.2927 93.4401 74.734 99.7326C70.1753 106.025 67.0399 113.274 65.5538 120.955C65.5538 121.09 65.7256 121.171 65.7652 121.022C68.5424 111.609 73.512 103.026 80.2476 96.0075C85.9962 90.001 92.9542 85.3448 100.639 82.3617C108.324 79.3786 116.552 78.1401 124.752 78.7321C125.029 78.7456 125.042 78.3674 124.752 78.3269Z" fill="#263238"/>
<path opacity="0.1" d="M143.33 84.1349C143.33 84.1349 128.98 102.855 110.93 106.124C97.1613 108.623 85.8238 101.275 81.2386 97.6688L80.2476 95.994C80.2476 95.994 89.5633 87.9708 107.164 83.3515C124.765 78.7321 143.33 84.1349 143.33 84.1349Z" fill="black"/>
<path d="M113.375 69.5338C111.87 70.4333 110.414 71.4163 109.014 72.4784C107.642 73.5365 106.372 74.726 105.222 76.0307C105.116 76.1388 105.222 76.2873 105.393 76.1928C106.715 75.0312 108.036 73.8696 109.358 72.7755C110.674 71.6724 112.055 70.6529 113.494 69.7229C113.506 69.7149 113.516 69.7046 113.524 69.6925C113.533 69.6804 113.538 69.6667 113.542 69.6523C113.545 69.6378 113.545 69.6229 113.542 69.6084C113.54 69.5939 113.534 69.58 113.527 69.5676C113.519 69.5552 113.509 69.5445 113.497 69.5361C113.485 69.5276 113.472 69.5217 113.457 69.5186C113.443 69.5154 113.429 69.5152 113.415 69.5178C113.4 69.5204 113.387 69.5259 113.375 69.5338Z" fill="#263238"/>
<path d="M124.17 73.7075C123.444 74.0181 122.704 74.2882 121.964 74.5989L119.783 75.5309C119.625 75.5309 119.704 75.855 119.863 75.7875L122.056 74.8826C122.783 74.5719 123.496 74.2342 124.236 73.9235C124.369 73.8695 124.302 73.6534 124.17 73.7075Z" fill="#263238"/>
<path d="M76.4552 126.83C76.4552 126.83 79.904 151.318 97.9144 159.882C115.925 168.445 137.886 159.882 137.886 159.882C137.886 159.882 129.244 106.908 76.4552 126.83Z" fill="#9FFF9E"/>
<path d="M125.478 143.957C123.814 143.755 122.162 143.471 120.51 143.16L118.092 142.701L116.837 142.431C116.348 141.972 115.872 141.499 115.37 141.08C111.954 138.036 108.269 135.323 104.363 132.976C102.231 131.683 100.025 130.524 97.7559 129.505H98.0994L104.019 129.775C107.983 129.964 111.948 130.045 115.912 130.315C116.044 130.315 116.044 130.099 115.912 130.086C111.948 129.815 107.983 129.37 104.019 129.018L98.258 128.492L95.2981 128.235L94.5317 128.141C93.5011 127.749 92.4704 127.384 91.4265 127.046C86.5131 125.331 81.2314 125.036 76.1645 126.196C71.6322 127.371 67.113 130.41 65.937 135.299C65.937 135.461 66.1616 135.583 66.2277 135.407C67.9191 131.355 72.3457 129.275 76.3495 128.424C79.0385 127.898 81.7955 127.843 84.5025 128.262C84.6938 129.522 84.9991 130.761 85.4142 131.963C85.9163 133.692 86.4052 135.407 86.9206 137.136C87.938 140.567 89.0612 143.971 90.0522 147.415C90.0522 147.444 90.0634 147.471 90.0832 147.491C90.103 147.512 90.1299 147.523 90.158 147.523C90.186 147.523 90.2129 147.512 90.2327 147.491C90.2525 147.471 90.2637 147.444 90.2637 147.415C89.4312 143.971 88.7309 140.513 87.9116 137.069C87.5152 135.38 87.1056 133.692 86.696 132.003C86.4614 130.824 86.1569 129.66 85.7842 128.519C87.3614 128.809 88.9227 129.183 90.4619 129.64C93.2408 130.483 95.9641 131.507 98.6148 132.706C98.8791 134.448 99.2623 136.177 99.6587 137.893C100.148 140.054 100.703 142.201 101.363 144.308C101.363 144.337 101.374 144.364 101.394 144.385C101.414 144.405 101.441 144.416 101.469 144.416C101.497 144.416 101.524 144.405 101.544 144.385C101.564 144.364 101.575 144.337 101.575 144.308L101.495 143.903C101.099 141.891 100.663 139.851 100.253 137.906C99.923 136.285 99.6058 134.664 99.2623 133.057C101.521 134.074 103.726 135.21 105.869 136.461C105.869 136.961 106.041 137.474 106.107 137.92C106.239 138.757 106.385 139.594 106.53 140.432C106.873 142.323 107.243 144.2 107.679 146.078C108.495 149.689 109.532 153.243 110.785 156.721C110.77 156.74 110.762 156.764 110.762 156.789C110.762 156.813 110.77 156.837 110.785 156.856L110.89 156.978C110.97 157.072 111.089 156.978 111.062 156.87C110.23 153.236 109.278 149.644 108.499 145.997C108.116 144.187 107.719 142.363 107.362 140.594C107.191 139.675 107.019 138.77 106.86 137.893C106.86 137.636 106.768 137.352 106.728 137.069C109.151 138.53 111.493 140.127 113.745 141.85C117.625 144.834 121.218 148.19 124.474 151.872C124.606 152.021 124.857 151.872 124.739 151.656C123.4 149.78 121.967 147.976 120.444 146.253C119.545 145.254 118.607 144.295 117.643 143.363H117.947C118.792 143.498 119.638 143.633 120.484 143.741C122.149 143.971 123.814 144.146 125.492 144.335C125.558 144.187 125.611 143.971 125.478 143.957Z" fill="#263238"/>
<path d="M112.859 152.25C112.859 152.034 112.793 151.832 112.754 151.616C112.714 151.399 112.569 151.089 112.529 150.819C112.159 149.184 111.842 147.536 111.551 145.889C111.551 145.767 111.353 145.808 111.366 145.889C111.461 148.078 111.907 150.236 112.687 152.277C112.687 152.345 112.833 152.277 112.82 152.277L112.859 152.25Z" fill="#263238"/>
<path d="M97.7427 151.859C97.7427 151.791 97.7427 151.764 97.637 151.751C97.1349 149.59 96.646 147.415 96.2099 145.24C95.972 144.092 95.7474 142.944 95.5228 141.796C95.4171 141.175 95.2982 140.553 95.1924 139.932C95.1401 139.385 95.011 138.848 94.8092 138.338C94.7992 138.318 94.7841 138.302 94.7654 138.29C94.7468 138.279 94.7254 138.272 94.7035 138.272C94.6817 138.272 94.6603 138.279 94.6416 138.29C94.623 138.302 94.6078 138.318 94.5978 138.338C94.5838 139.449 94.7353 140.556 95.0471 141.621C95.2717 142.809 95.4964 144.011 95.7606 145.2C96.276 147.604 96.8706 150.022 97.5445 152.399C97.5445 152.521 97.7823 152.494 97.7823 152.399L97.7427 151.859Z" fill="#263238"/>
<path d="M123.827 136.907C120.537 136.447 117.22 135.948 113.956 135.556C113.824 135.556 113.758 135.759 113.956 135.786C117.246 136.272 120.563 136.691 123.827 137.136C123.919 137.136 123.972 136.92 123.827 136.907Z" fill="#263238"/>
<path d="M67.232 69.4123C67.232 69.4123 56.2117 19.9903 108.195 0C108.155 0 122.545 65.0495 67.232 69.4123Z" fill="#9FFF9E"/>
<path d="M78.5033 41.3852L79.0583 41.0341C80.0493 40.4938 81.0271 39.9265 82.0049 39.3592L88.0304 35.9149C91.9946 33.6457 95.9587 31.2955 99.9229 29.0804C99.9419 29.0612 99.954 29.0362 99.9574 29.0091C99.9607 28.9821 99.9551 28.9547 99.9414 28.9313C99.9277 28.9079 99.9066 28.8899 99.8817 28.8802C99.8568 28.8705 99.8294 28.8697 99.804 28.8778C95.8398 31.1064 91.7435 33.1865 87.7133 35.3611L81.7539 38.5758L79.3225 39.9265C81.0536 36.5767 82.9167 33.2811 84.9384 30.1069C87.6605 25.8792 90.6336 21.8407 93.7256 17.9507C93.7589 17.9166 93.7776 17.8705 93.7776 17.8223C93.7776 17.7742 93.7589 17.7281 93.7256 17.694C93.6923 17.66 93.6472 17.6409 93.6001 17.6409C93.553 17.6409 93.5078 17.66 93.4745 17.694C88.917 22.2248 84.8865 27.2783 81.4632 32.7543C81.4632 32.5787 81.4632 32.4031 81.4632 32.241C81.5292 31.0119 81.5557 29.7827 81.5689 28.5536C81.5689 26.1359 81.4896 23.7181 81.5689 21.3139C81.5608 21.29 81.5456 21.2694 81.5255 21.2547C81.5054 21.2401 81.4813 21.2323 81.4566 21.2323C81.4319 21.2323 81.4078 21.2401 81.3877 21.2547C81.3676 21.2694 81.3524 21.29 81.3443 21.3139C81.2518 23.6911 80.9743 26.0548 80.8421 28.4321C80.8421 29.6207 80.7232 30.7958 80.6836 31.9844C80.6836 32.6192 80.6043 33.3351 80.6836 34.051C79.6132 35.7934 78.5826 37.5628 77.6179 39.3457C75.8799 42.5688 74.3269 45.8927 72.9667 49.3003C72.9667 48.0712 72.8478 46.842 72.7817 45.6129C72.6232 42.9115 72.2928 40.2101 72.1871 37.5087C72.179 37.4849 72.1638 37.4642 72.1437 37.4496C72.1235 37.435 72.0995 37.4271 72.0748 37.4271C72.0501 37.4271 72.026 37.435 72.0059 37.4496C71.9857 37.4642 71.9706 37.4849 71.9624 37.5087C71.9624 40.2101 71.8964 42.9115 71.9624 45.6129C71.9624 46.9636 72.0417 48.3143 72.1342 49.665C72.1342 50.1512 72.1342 50.6645 72.2267 51.1778C70.5592 55.5894 69.2338 60.1282 68.2626 64.7523C67.3624 69.6891 66.7185 74.6711 66.3334 79.6775C66.8777 75.1708 67.7971 70.7199 69.0818 66.3731C69.7293 64.0364 70.4032 61.7132 71.1432 59.417C73.297 58.377 75.3716 57.0668 77.4594 55.8917C79.5472 54.7166 81.8068 53.4605 83.9738 52.2448C88.308 49.8136 92.6288 47.3418 97.1083 45.1942C97.2405 45.1267 97.1083 44.9376 96.9894 45.0051C92.4571 47.0987 87.8983 49.0572 83.4585 51.3804C81.2386 52.515 79.0583 53.7306 76.8516 54.9732C75.0413 56.0133 73.1913 57.0533 71.4735 58.2419C71.9757 56.7021 72.491 55.1758 73.0724 53.663C74.6736 49.4771 76.4864 45.379 78.5033 41.3852Z" fill="#263238"/>
<path d="M74.0636 30.0935C74.0636 29.9449 73.8257 29.9449 73.8389 30.0935C74.0239 32.9164 74.1164 35.7259 74.4071 38.5489C74.4158 38.5759 74.4326 38.5994 74.4552 38.6161C74.4777 38.6328 74.5048 38.6417 74.5326 38.6417C74.5605 38.6417 74.5876 38.6328 74.6101 38.6161C74.6327 38.5994 74.6495 38.5759 74.6582 38.5489C74.5392 35.7124 74.2618 32.9029 74.0636 30.0935Z" fill="#263238"/>
<path d="M98.9715 39.5213C95.7077 40.872 92.4307 42.1282 89.1933 43.5734C89.114 43.5734 89.1933 43.7625 89.1933 43.722C92.4703 42.4659 95.7077 41.1017 98.9715 39.7915C99.1565 39.6834 99.1037 39.4673 98.9715 39.5213Z" fill="#263238"/>
<path d="M103.9 16.7351C100.718 18.227 97.6288 19.9186 94.6506 21.8002C94.6296 21.8239 94.6167 21.854 94.6138 21.8859C94.6109 21.9178 94.6182 21.9499 94.6345 21.9772C94.6509 22.0045 94.6754 22.0258 94.7045 22.0377C94.7336 22.0496 94.7657 22.0516 94.796 22.0433C97.8087 20.2334 100.874 18.5045 104.046 16.9241C104.151 16.8566 104.032 16.6675 103.9 16.7351Z" fill="#263238"/>
<path d="M103.121 176.279H28.1984V256.997H103.121V176.279Z" fill="#37474F"/>
<path d="M26.8769 204.847H23.0449V343.104H26.8769V204.847Z" fill="#263238"/>
<path d="M107.864 204.847H104.032V343.104H107.864V204.847Z" fill="#263238"/>
<path d="M69.4122 204.847H65.5802V343.104H69.4122V204.847Z" fill="#263238"/>
</svg>
