<svg width="360" height="240" viewBox="0 0 360 240" fill="none" xmlns="http://www.w3.org/2000/svg">
<path d="M321.356 216.547C342.7 216.547 360.003 212.477 360.003 207.456C360.003 202.435 342.7 198.365 321.356 198.365C300.011 198.365 282.708 202.435 282.708 207.456C282.708 212.477 300.011 216.547 321.356 216.547Z" fill="#EBEBEB"/>
<path d="M42.3078 228.548C63.6522 228.548 80.9554 224.478 80.9554 219.457C80.9554 214.437 63.6522 210.367 42.3078 210.367C20.9633 210.367 3.66024 214.437 3.66024 219.457C3.66024 224.478 20.9633 228.548 42.3078 228.548Z" fill="#EBEBEB"/>
<path d="M63.4247 216.872C84.7691 216.872 102.072 212.802 102.072 207.781C102.072 202.761 84.7691 198.691 63.4247 198.691C42.0802 198.691 24.7771 202.761 24.7771 207.781C24.7771 212.802 42.0802 216.872 63.4247 216.872Z" fill="#EBEBEB"/>
<path d="M197.173 239.281C271.211 239.281 331.23 231.735 331.23 222.426C331.23 213.117 271.211 205.571 197.173 205.571C123.136 205.571 63.1161 213.117 63.1161 222.426C63.1161 231.735 123.136 239.281 197.173 239.281Z" fill="#EBEBEB"/>
<path d="M11.7751 117.259C22.0333 127.267 23.7596 142.838 21.5912 156.457C21.5412 156.765 21.0575 156.682 21.0575 156.39C21.0575 153.288 21.1576 150.219 21.1409 147.158C21.0908 147.016 21.0408 146.891 20.9824 146.749C18.3053 144.798 15.845 142.579 14.3104 139.585C12.6424 136.249 11.9252 132.421 10.6158 128.902C10.4907 128.56 10.8493 128.66 11.0912 128.835C17.3295 133.438 19.3144 138.392 21.0992 145.006C21.0736 141.544 20.7189 138.093 20.04 134.698C18.6889 128.418 16.0201 122.188 11.5165 117.526C11.333 117.351 11.5999 117.042 11.7751 117.259Z" fill="#263238"/>
<path d="M9.84852 118.426C8.08044 118.485 6.97956 121.312 5.60346 122.129C5.45893 122.246 5.29157 122.332 5.1121 122.38C4.93263 122.429 4.74502 122.439 4.56128 122.411C4.37754 122.383 4.20174 122.316 4.04514 122.216C3.88854 122.116 3.75459 121.984 3.6519 121.829C2.29248 119.919 4.16064 117.576 5.92038 116.266C4.66104 116.783 3.61854 117.693 2.25912 117.934C2.08511 117.997 1.8995 118.02 1.71548 118.003C1.53145 117.985 1.35352 117.927 1.19432 117.834C1.03511 117.74 0.89854 117.612 0.794291 117.459C0.690043 117.306 0.620677 117.133 0.591117 116.95C-0.00936317 114.357 3.24324 113.206 5.47002 113.147C4.39416 112.397 1.30002 110.353 2.96802 109.344C4.63602 108.335 8.2806 111.262 9.46488 112.222C11.2079 113.639 13.2929 115.758 13.368 117.968C13.4681 120.561 11.2079 118.969 9.84852 118.426Z" fill="#9FFF9E"/>
<path d="M9.84852 118.426C8.08044 118.485 6.97956 121.312 5.60346 122.129C5.45893 122.246 5.29157 122.332 5.1121 122.38C4.93263 122.429 4.74502 122.439 4.56128 122.411C4.37754 122.383 4.20174 122.316 4.04514 122.216C3.88854 122.116 3.75459 121.984 3.6519 121.829C2.29248 119.919 4.16064 117.576 5.92038 116.266C4.66104 116.783 3.61854 117.693 2.25912 117.934C2.08511 117.997 1.8995 118.02 1.71548 118.003C1.53145 117.985 1.35352 117.927 1.19432 117.834C1.03511 117.74 0.89854 117.612 0.794291 117.459C0.690043 117.306 0.620677 117.133 0.591117 116.95C-0.00936317 114.357 3.24324 113.206 5.47002 113.147C4.39416 112.397 1.30002 110.353 2.96802 109.344C4.63602 108.335 8.2806 111.262 9.46488 112.222C11.2079 113.639 13.2929 115.758 13.368 117.968C13.4681 120.561 11.2079 118.969 9.84852 118.426Z" fill="black"/>
<path d="M10.3573 118.86C8.10545 117.834 3.76866 119.311 3.4017 118.46C2.6511 116.725 6.1122 115.532 7.98869 115.299C6.26231 114.832 2.9847 114.09 3.0681 112.43C3.1932 110.403 8.12213 112.146 10.6241 114.056C13.7683 116.475 13.7516 118.802 13.2346 119.269C12.534 119.911 10.7326 119.035 10.3573 118.86Z" fill="#9FFF9E"/>
<path d="M35.1354 116.266C24.5019 125.907 22.1917 141.37 23.8347 155.047C23.8347 155.364 24.3601 155.298 24.3685 155.006C24.4936 151.912 24.5102 148.834 24.6353 145.782C24.7021 145.64 24.7521 145.515 24.8105 145.373C27.5627 143.53 30.1064 141.428 31.741 138.476C33.5842 135.14 34.4015 131.395 35.8443 127.934C35.9777 127.6 35.6191 127.684 35.3773 127.851C28.9638 132.212 26.7871 137.083 24.7521 143.63C24.9144 140.171 25.4087 136.736 26.2283 133.372C27.8129 127.15 30.7152 121.029 35.4023 116.542C35.4366 116.506 35.4556 116.458 35.4555 116.408C35.4553 116.359 35.4359 116.311 35.4014 116.276C35.3668 116.24 35.3198 116.219 35.2702 116.217C35.2206 116.216 35.1723 116.233 35.1354 116.266Z" fill="#263238"/>
<path d="M37.0202 117.509C38.78 117.634 39.7808 120.495 41.1235 121.37C41.2634 121.493 41.4276 121.585 41.6054 121.641C41.7832 121.696 41.9707 121.713 42.1556 121.691C42.3404 121.669 42.5186 121.608 42.6785 121.513C42.8383 121.417 42.9763 121.289 43.0834 121.137C44.5179 119.285 42.7331 116.875 41.0318 115.491C42.2661 116.058 43.2752 117.009 44.618 117.317C44.788 117.377 44.9688 117.4 45.1484 117.385C45.328 117.37 45.5023 117.316 45.6599 117.229C45.8175 117.142 45.9547 117.022 46.0626 116.877C46.1706 116.733 46.2467 116.567 46.286 116.392C46.9865 113.823 43.784 112.547 41.5489 112.405C42.6581 111.696 45.8356 109.77 44.226 108.702C42.6164 107.635 38.8467 110.412 37.629 111.329C35.8276 112.68 33.6676 114.715 33.5091 116.917C33.3256 119.544 35.6441 117.993 37.0202 117.509Z" fill="#9FFF9E"/>
<path d="M37.0202 117.509C38.78 117.634 39.7808 120.495 41.1235 121.37C41.2634 121.493 41.4276 121.585 41.6054 121.641C41.7832 121.696 41.9707 121.713 42.1556 121.691C42.3404 121.669 42.5186 121.608 42.6785 121.513C42.8383 121.417 42.9763 121.289 43.0834 121.137C44.5179 119.285 42.7331 116.875 41.0318 115.491C42.2661 116.058 43.2752 117.009 44.618 117.317C44.788 117.377 44.9688 117.4 45.1484 117.385C45.328 117.37 45.5023 117.316 45.6599 117.229C45.8175 117.142 45.9547 117.022 46.0626 116.877C46.1706 116.733 46.2467 116.567 46.286 116.392C46.9865 113.823 43.784 112.547 41.5489 112.405C42.6581 111.696 45.8356 109.77 44.226 108.702C42.6164 107.635 38.8467 110.412 37.629 111.329C35.8276 112.68 33.6676 114.715 33.5091 116.917C33.3256 119.544 35.6441 117.993 37.0202 117.509Z" fill="black"/>
<path d="M36.4948 117.918C38.7883 116.984 43.0584 118.618 43.4587 117.784C44.2927 116.075 40.8566 114.749 38.9968 114.448C40.7399 114.048 44.0592 113.431 44.0008 111.771C43.9508 109.736 38.9551 111.296 36.3864 113.114C33.1505 115.407 33.0504 117.734 33.5842 118.218C34.2931 118.885 36.1112 118.076 36.4948 117.918Z" fill="#9FFF9E"/>
<path d="M24.2684 141.737C23.5347 146.897 22.4196 151.995 20.9324 156.991C20.9125 157.089 20.8543 157.176 20.7706 157.231C20.6869 157.287 20.5846 157.307 20.4862 157.287C20.3878 157.267 20.3013 157.209 20.2457 157.125C20.1902 157.041 20.1702 156.939 20.1901 156.841C20.8823 152.137 22.1584 147.525 22.8589 142.829C23.6237 138.074 23.9032 133.254 23.6929 128.443C23.2426 120.52 21.0908 112.096 15.92 105.925C15.8116 105.775 16.0535 105.566 16.1702 105.708C26.5118 117.768 24.8689 132.563 24.8605 133.889C26.32 128.885 27.8296 123.164 33.3757 118.085C33.6092 117.859 33.801 117.968 33.7593 118.335C32.7668 127.6 30.1898 132.438 24.8188 137.392C24.6854 138.834 24.5019 140.294 24.2684 141.737Z" fill="#263238"/>
<path d="M15.87 107.284C14.0102 106.45 11.4415 108.827 9.59832 108.994C9.38981 109.042 9.17345 109.046 8.9633 109.006C8.75316 108.965 8.55392 108.88 8.37853 108.758C8.20313 108.635 8.05551 108.477 7.94524 108.293C7.83498 108.11 7.76454 107.905 7.7385 107.693C7.2798 105.032 10.399 103.523 12.8843 103.064C11.3164 102.964 9.7818 103.381 8.24724 102.972C8.0381 102.945 7.83742 102.872 7.65885 102.76C7.48028 102.647 7.32803 102.498 7.21247 102.321C7.09691 102.145 7.02076 101.946 6.9892 101.737C6.95764 101.528 6.97142 101.315 7.0296 101.113C7.71348 98.1186 11.6666 98.5606 14.0102 99.6281C13.2679 98.302 11.0828 94.6241 13.2929 94.4072C15.503 94.1904 17.8382 99.061 18.5888 100.662C19.6814 103.006 20.7823 106.25 19.7481 108.585C18.5305 111.321 16.9876 108.535 15.87 107.284Z" fill="#9FFF9E"/>
<path d="M15.87 107.284C14.0102 106.45 11.4415 108.827 9.59832 108.994C9.38981 109.042 9.17345 109.046 8.9633 109.006C8.75316 108.965 8.55392 108.88 8.37853 108.758C8.20313 108.635 8.05551 108.477 7.94524 108.293C7.83498 108.11 7.76454 107.905 7.7385 107.693C7.2798 105.032 10.399 103.523 12.8843 103.064C11.3164 102.964 9.7818 103.381 8.24724 102.972C8.0381 102.945 7.83742 102.872 7.65885 102.76C7.48028 102.647 7.32803 102.498 7.21247 102.321C7.09691 102.145 7.02076 101.946 6.9892 101.737C6.95764 101.528 6.97142 101.315 7.0296 101.113C7.71348 98.1186 11.6666 98.5606 14.0102 99.6281C13.2679 98.302 11.0828 94.6241 13.2929 94.4072C15.503 94.1904 17.8382 99.061 18.5888 100.662C19.6814 103.006 20.7823 106.25 19.7481 108.585C18.5305 111.321 16.9876 108.535 15.87 107.284Z" fill="black"/>
<path d="M16.1619 107.993C14.3354 105.791 9.08958 105.141 9.13962 104.073C9.2397 101.897 13.4347 102.405 15.4864 103.098C13.9351 101.746 10.891 99.3195 11.8334 97.6432C12.976 95.6082 17.2211 99.9033 18.8557 103.148C20.899 107.234 19.6897 109.636 18.9308 109.861C17.8716 110.17 16.4621 108.36 16.1619 107.993Z" fill="#9FFF9E"/>
<path d="M31.0738 144.564L35.6358 179.434H7.8636C8.43906 176.339 13.6099 144.522 13.6099 144.522L31.0738 144.564Z" fill="#9FFF9E"/>
<path d="M1.43346 179.392L45.7022 179.183L178.5 178.975L311.298 179.183L355.566 179.392L311.298 179.592L178.5 179.809L45.7022 179.592L1.43346 179.392Z" fill="#263238"/>
<path d="M48.7713 186.981H39.2971V208.615H48.7713V186.981Z" fill="#455A64"/>
<path d="M39.2971 189.308H34.7434V206.297H39.2971V189.308Z" fill="#455A64"/>
<path d="M39.3054 189.308H37.0286V206.297H39.3054V189.308Z" fill="#37474F"/>
<path d="M76.8187 208.624H86.293V186.99H76.8187V208.624Z" fill="#455A64"/>
<path d="M86.293 206.297H90.8466V189.308H86.293V206.297Z" fill="#455A64"/>
<path d="M88.5698 189.3H86.293V206.288H88.5698V189.3Z" fill="#37474F"/>
<path d="M76.8187 193.695H48.7713V201.91H76.8187V193.695Z" fill="#37474F"/>
<path d="M26.1449 198.866H16.6706V220.5H26.1449V198.866Z" fill="#455A64"/>
<path d="M16.6706 201.193H12.117V218.181H16.6706V201.193Z" fill="#455A64"/>
<path d="M16.6706 201.193H14.3938V218.181H16.6706V201.193Z" fill="#37474F"/>
<path d="M54.184 220.5H63.6582V198.866H54.184V220.5Z" fill="#455A64"/>
<path d="M63.6665 218.173H68.2202V201.184H63.6665V218.173Z" fill="#455A64"/>
<path d="M65.935 201.184H63.6582V218.173H65.935V201.184Z" fill="#37474F"/>
<path d="M54.184 205.579H26.1365V213.794H54.184V205.579Z" fill="#37474F"/>
<path d="M153.188 224.47C184.896 224.47 210.601 201.125 210.601 172.328C210.601 143.531 184.896 120.186 153.188 120.186C121.48 120.186 95.7755 143.531 95.7755 172.328C95.7755 201.125 121.48 224.47 153.188 224.47Z" fill="#9FFF9E"/>
<path d="M210.601 172.328C210.601 201.126 184.897 224.478 153.188 224.478C132.13 224.478 113.723 214.178 103.74 198.832C98.5571 190.963 95.7886 181.751 95.7755 172.328C95.7755 143.531 121.48 120.186 153.188 120.186C161.857 120.162 170.435 121.958 178.367 125.457C197.457 133.922 210.601 151.728 210.601 172.328Z" fill="#9FFF9E"/>
<path d="M174.714 123.981C167.284 125.822 159.658 126.757 152.004 126.766C146.849 126.773 141.703 126.332 136.625 125.449C134.615 125.09 132.713 124.681 130.945 124.248C131.446 124.056 131.946 123.864 132.455 123.689C145.903 126.715 159.864 126.641 173.279 123.472C173.771 123.631 174.247 123.806 174.714 123.981ZM184.622 128.718C155.632 139.118 132.171 133.072 121.404 128.927L120.495 129.485C125.701 131.549 131.106 133.069 136.625 134.022C141.703 134.913 146.849 135.356 152.004 135.348C163.45 135.31 174.8 133.252 185.531 129.268C185.23 129.052 184.93 128.868 184.622 128.718ZM194.012 135.69C155.348 150.419 124.34 141.061 112.08 135.957C111.855 136.157 111.638 136.366 111.421 136.574C124.312 141.847 138.118 144.523 152.046 144.447C166.642 144.395 181.102 141.641 194.696 136.324L194.012 135.69ZM119.236 214.403C120.07 214.979 120.971 215.537 121.871 216.071C131.68 218.861 141.831 220.264 152.029 220.241C163.545 220.223 174.996 218.497 186.006 215.12C186.84 214.595 187.674 214.045 188.508 213.452C158.376 223.36 133.464 218.94 119.236 214.378V214.403ZM201.302 143.888C171.778 155.273 146.374 154.43 129.836 151.528C121.245 150.054 112.85 147.603 104.816 144.222L104.341 144.914C112.457 148.361 120.945 150.854 129.636 152.345C136.851 153.604 144.162 154.232 151.487 154.222C168.71 154.157 185.771 150.882 201.794 144.564L201.302 143.888ZM129.836 208.624C121.567 207.198 113.479 204.871 105.717 201.685C106.042 202.127 106.376 202.56 106.726 202.994C114.129 205.915 121.811 208.073 129.653 209.433C136.868 210.692 144.179 211.32 151.503 211.309C168.143 211.244 184.634 208.176 200.184 202.252C200.509 201.843 200.818 201.418 201.118 201.009C171.686 212.335 146.341 211.493 129.836 208.599V208.624ZM206.731 153.496C174.43 166.698 146.566 165.864 128.627 162.712C118.578 161 108.796 157.983 99.5285 153.738C99.4201 153.997 99.3117 154.255 99.22 154.514C108.52 158.76 118.332 161.78 128.41 163.496C135.997 164.823 143.685 165.484 151.387 165.472C170.484 165.392 189.382 161.575 207.014 154.238C206.948 153.98 206.856 153.738 206.731 153.471V153.496ZM209.717 163.162C176.148 177.674 147.117 176.873 128.627 173.637C111.054 170.551 99.4368 164.738 96.6429 163.246L96.4928 164.08C99.7287 165.789 111.271 171.402 128.443 174.421C136.03 175.748 143.718 176.409 151.42 176.398C171.546 176.304 191.439 172.08 209.867 163.988L209.717 163.162ZM127.985 186.347C111.305 183.42 99.8455 178.099 95.9423 176.106C95.9423 176.431 95.9924 176.756 96.0341 177.073C106.092 181.924 116.788 185.322 127.801 187.165C135.59 188.519 143.481 189.197 151.387 189.191C171.688 189.102 191.761 184.909 210.4 176.865C210.4 176.556 210.459 176.248 210.484 175.931C176.323 190.434 146.808 189.6 127.968 186.322L127.985 186.347ZM128.643 198.023C118.255 196.278 108.153 193.122 98.6195 188.641C98.7529 189.016 98.8947 189.383 99.0448 189.758C108.413 194.038 118.303 197.07 128.46 198.774C136.047 200.101 143.735 200.762 151.437 200.751C170.689 200.669 189.736 196.795 207.49 189.35C207.623 188.991 207.757 188.649 207.882 188.291C175.081 201.968 146.808 201.143 128.627 197.94L128.643 198.023Z" fill="white"/>
<path d="M210.601 172.328C210.601 201.126 184.897 224.478 153.188 224.478C132.13 224.478 113.723 214.178 103.74 198.832C114.532 207.523 132.396 217.289 156.207 214.678C185.222 211.476 218.332 169.776 178.367 125.44C197.457 133.922 210.601 151.728 210.601 172.328Z" fill="black"/>
<path d="M327.819 148.509H321.698V155.548H327.819V148.509Z" fill="#A6A6A6"/>
<path d="M329.754 153.271H319.771V161.311H329.754V153.271Z" fill="#C7C7C7"/>
<path d="M336.626 171.252V208.056H312.891V171.252C312.891 163.963 317.469 158.342 324.759 158.342C332.048 158.342 336.626 163.98 336.626 171.252Z" fill="#9FFF9E"/>
<path d="M323.474 161.111C323.474 161.294 323.42 161.473 323.318 161.626C323.216 161.778 323.07 161.897 322.901 161.967C322.731 162.036 322.545 162.054 322.365 162.018C322.185 161.981 322.02 161.892 321.891 161.762C321.762 161.632 321.674 161.466 321.64 161.286C321.605 161.106 321.624 160.92 321.696 160.751C321.767 160.581 321.887 160.438 322.04 160.337C322.194 160.236 322.373 160.183 322.557 160.185C322.801 160.187 323.034 160.286 323.206 160.459C323.378 160.632 323.474 160.867 323.474 161.111ZM334.316 168.508C334.133 168.508 333.954 168.562 333.802 168.664C333.65 168.766 333.531 168.911 333.461 169.08C333.391 169.249 333.373 169.435 333.408 169.615C333.444 169.794 333.532 169.959 333.662 170.089C333.791 170.218 333.956 170.306 334.136 170.342C334.315 170.378 334.501 170.359 334.671 170.289C334.84 170.219 334.984 170.1 335.086 169.948C335.188 169.796 335.242 169.617 335.242 169.434C335.242 169.193 335.148 168.961 334.98 168.788C334.811 168.615 334.582 168.515 334.341 168.508H334.316ZM323.808 169.434C323.624 169.434 323.445 169.488 323.293 169.591C323.14 169.693 323.022 169.838 322.952 170.007C322.882 170.177 322.864 170.364 322.901 170.543C322.937 170.723 323.026 170.888 323.156 171.017C323.287 171.146 323.452 171.234 323.632 171.269C323.812 171.303 323.999 171.284 324.168 171.213C324.337 171.141 324.481 171.021 324.582 170.868C324.682 170.715 324.735 170.535 324.734 170.351C324.734 170.111 324.639 169.88 324.471 169.708C324.302 169.537 324.073 169.438 323.833 169.434H323.808ZM324.734 178.266C324.55 178.266 324.371 178.32 324.219 178.422C324.067 178.524 323.948 178.668 323.878 178.837C323.808 179.007 323.79 179.193 323.826 179.372C323.861 179.552 323.949 179.717 324.079 179.846C324.208 179.976 324.373 180.064 324.553 180.1C324.733 180.135 324.919 180.117 325.088 180.047C325.257 179.977 325.402 179.858 325.503 179.706C325.605 179.554 325.659 179.375 325.659 179.192C325.659 178.95 325.565 178.719 325.397 178.546C325.229 178.373 325 178.272 324.759 178.266H324.734ZM315.176 187.507C314.992 187.507 314.813 187.561 314.661 187.663C314.508 187.765 314.39 187.91 314.32 188.08C314.25 188.25 314.232 188.436 314.269 188.616C314.305 188.796 314.394 188.961 314.524 189.09C314.655 189.219 314.82 189.307 315 189.341C315.181 189.376 315.367 189.357 315.536 189.285C315.705 189.214 315.849 189.094 315.95 188.941C316.05 188.787 316.103 188.608 316.102 188.424C316.1 188.184 316.005 187.955 315.837 187.784C315.669 187.612 315.441 187.513 315.201 187.507H315.176ZM314.25 179.283C314.067 179.283 313.888 179.338 313.736 179.439C313.584 179.541 313.465 179.686 313.395 179.855C313.325 180.024 313.307 180.21 313.342 180.39C313.378 180.569 313.466 180.734 313.596 180.864C313.725 180.993 313.89 181.081 314.07 181.117C314.249 181.153 314.435 181.135 314.604 181.064C314.774 180.994 314.918 180.876 315.02 180.724C315.122 180.571 315.176 180.392 315.176 180.209C315.176 179.968 315.082 179.736 314.914 179.563C314.745 179.39 314.516 179.29 314.275 179.283H314.25ZM314.484 170.576C314.301 170.576 314.122 170.631 313.969 170.733C313.817 170.834 313.698 170.979 313.628 171.148C313.558 171.317 313.54 171.503 313.576 171.683C313.611 171.862 313.7 172.027 313.829 172.157C313.959 172.286 314.124 172.374 314.303 172.41C314.483 172.446 314.669 172.428 314.838 172.357C315.007 172.287 315.152 172.169 315.253 172.017C315.355 171.864 315.409 171.685 315.409 171.502C315.41 171.261 315.315 171.029 315.147 170.856C314.979 170.683 314.75 170.583 314.509 170.576H314.484ZM318.495 165.247C318.312 165.247 318.133 165.302 317.981 165.403C317.829 165.505 317.71 165.65 317.64 165.819C317.57 165.988 317.552 166.174 317.587 166.354C317.623 166.533 317.711 166.698 317.841 166.828C317.97 166.957 318.135 167.045 318.315 167.081C318.494 167.117 318.68 167.098 318.85 167.028C319.019 166.958 319.163 166.84 319.265 166.687C319.367 166.535 319.421 166.356 319.421 166.173C319.421 165.932 319.327 165.7 319.159 165.527C318.991 165.354 318.761 165.254 318.52 165.247H318.495ZM319.421 174.421C319.238 174.421 319.059 174.476 318.907 174.577C318.754 174.679 318.636 174.824 318.566 174.993C318.496 175.162 318.477 175.348 318.513 175.528C318.549 175.707 318.637 175.872 318.766 176.002C318.896 176.131 319.061 176.219 319.24 176.255C319.42 176.291 319.606 176.272 319.775 176.202C319.944 176.132 320.089 176.014 320.191 175.861C320.292 175.709 320.347 175.53 320.347 175.347C320.349 175.104 320.256 174.87 320.087 174.696C319.919 174.521 319.689 174.419 319.446 174.413L319.421 174.421ZM328.47 164.413C328.287 164.413 328.108 164.468 327.956 164.569C327.803 164.671 327.685 164.816 327.615 164.985C327.545 165.154 327.526 165.34 327.562 165.52C327.598 165.699 327.686 165.864 327.815 165.994C327.945 166.123 328.11 166.211 328.289 166.247C328.469 166.283 328.655 166.264 328.824 166.194C328.993 166.124 329.138 166.006 329.24 165.853C329.341 165.701 329.396 165.522 329.396 165.339C329.389 165.102 329.292 164.877 329.125 164.709C328.957 164.542 328.732 164.445 328.495 164.438L328.47 164.413ZM329.587 173.395C329.404 173.395 329.225 173.45 329.072 173.552C328.92 173.654 328.801 173.799 328.731 173.969C328.662 174.139 328.644 174.325 328.68 174.505C328.717 174.685 328.806 174.85 328.936 174.979C329.066 175.108 329.232 175.195 329.412 175.23C329.592 175.265 329.779 175.245 329.948 175.174C330.117 175.103 330.26 174.983 330.361 174.829C330.462 174.676 330.515 174.496 330.513 174.313C330.505 174.077 330.407 173.854 330.24 173.688C330.072 173.522 329.848 173.427 329.612 173.42L329.587 173.395ZM319.913 182.995C319.73 182.995 319.551 183.049 319.399 183.151C319.246 183.252 319.128 183.397 319.058 183.566C318.988 183.735 318.969 183.922 319.005 184.101C319.041 184.281 319.129 184.446 319.258 184.575C319.388 184.705 319.553 184.793 319.732 184.828C319.912 184.864 320.098 184.846 320.267 184.776C320.436 184.706 320.581 184.587 320.683 184.435C320.784 184.283 320.839 184.104 320.839 183.921C320.832 183.684 320.736 183.458 320.568 183.291C320.4 183.123 320.175 183.026 319.938 183.02L319.913 182.995ZM329.921 190.301C329.738 190.301 329.558 190.355 329.406 190.457C329.253 190.559 329.135 190.704 329.065 190.874C328.995 191.044 328.977 191.23 329.014 191.41C329.05 191.59 329.139 191.755 329.269 191.884C329.4 192.013 329.565 192.101 329.746 192.135C329.926 192.17 330.112 192.151 330.281 192.079C330.45 192.008 330.594 191.888 330.695 191.735C330.796 191.581 330.848 191.401 330.847 191.218C330.838 190.975 330.734 190.746 330.558 190.579C330.382 190.412 330.147 190.321 329.904 190.326L329.921 190.301ZM329.779 197.256C329.596 197.256 329.416 197.311 329.264 197.413C329.112 197.515 328.993 197.66 328.923 197.83C328.853 197.999 328.836 198.186 328.872 198.366C328.908 198.545 328.997 198.71 329.128 198.839C329.258 198.969 329.424 199.056 329.604 199.091C329.784 199.126 329.97 199.106 330.139 199.035C330.308 198.963 330.452 198.843 330.553 198.69C330.654 198.537 330.707 198.357 330.705 198.174C330.696 197.931 330.593 197.701 330.416 197.535C330.24 197.368 330.005 197.277 329.763 197.281L329.779 197.256ZM320.514 190.459C320.33 190.459 320.151 190.513 319.999 190.615C319.847 190.717 319.728 190.861 319.658 191.031C319.588 191.2 319.57 191.386 319.606 191.565C319.641 191.745 319.729 191.91 319.859 192.039C319.988 192.169 320.153 192.257 320.333 192.293C320.512 192.328 320.699 192.31 320.868 192.24C321.037 192.17 321.182 192.051 321.283 191.899C321.385 191.747 321.439 191.568 321.439 191.385C321.433 191.141 321.33 190.909 321.153 190.74C320.977 190.572 320.741 190.48 320.497 190.484L320.514 190.459ZM316.01 201.301C315.826 201.299 315.647 201.352 315.493 201.453C315.34 201.554 315.22 201.698 315.149 201.867C315.077 202.036 315.058 202.222 315.093 202.402C315.127 202.582 315.215 202.748 315.344 202.878C315.473 203.009 315.638 203.098 315.818 203.134C315.998 203.171 316.184 203.153 316.354 203.083C316.524 203.013 316.669 202.894 316.771 202.742C316.873 202.59 316.927 202.41 316.927 202.227C316.925 202.106 316.899 201.987 316.851 201.877C316.803 201.767 316.734 201.667 316.647 201.583C316.56 201.499 316.458 201.434 316.346 201.389C316.233 201.345 316.114 201.324 315.993 201.326L316.01 201.301ZM325.301 186.289C325.117 186.287 324.937 186.34 324.784 186.441C324.631 186.542 324.511 186.686 324.439 186.855C324.368 187.024 324.349 187.21 324.383 187.39C324.418 187.57 324.506 187.736 324.635 187.866C324.764 187.997 324.929 188.086 325.109 188.122C325.288 188.158 325.475 188.141 325.645 188.071C325.814 188.001 325.959 187.882 326.061 187.73C326.164 187.578 326.218 187.398 326.218 187.215C326.209 186.974 326.107 186.745 325.932 186.579C325.758 186.412 325.525 186.32 325.284 186.322L325.301 186.289ZM325.409 193.795C325.226 193.795 325.047 193.849 324.895 193.951C324.743 194.053 324.624 194.197 324.554 194.367C324.484 194.536 324.465 194.722 324.501 194.901C324.537 195.081 324.625 195.246 324.754 195.375C324.884 195.505 325.049 195.593 325.228 195.629C325.408 195.664 325.594 195.646 325.763 195.576C325.932 195.506 326.077 195.387 326.179 195.235C326.281 195.083 326.335 194.904 326.335 194.721C326.326 194.479 326.222 194.25 326.046 194.085C325.869 193.919 325.634 193.83 325.392 193.837L325.409 193.795ZM325.409 201.301C325.226 201.301 325.047 201.355 324.895 201.457C324.743 201.559 324.624 201.703 324.554 201.873C324.484 202.042 324.465 202.228 324.501 202.407C324.537 202.587 324.625 202.752 324.754 202.881C324.884 203.011 325.049 203.099 325.228 203.135C325.408 203.17 325.594 203.152 325.763 203.082C325.932 203.012 326.077 202.893 326.179 202.741C326.281 202.589 326.335 202.41 326.335 202.227C326.333 202.106 326.307 201.986 326.258 201.875C326.209 201.764 326.139 201.664 326.051 201.58C325.964 201.496 325.86 201.431 325.747 201.387C325.634 201.343 325.514 201.323 325.392 201.326L325.409 201.301ZM330.113 204.762C329.93 204.762 329.751 204.816 329.599 204.918C329.446 205.02 329.328 205.164 329.258 205.334C329.188 205.503 329.169 205.689 329.205 205.869C329.241 206.048 329.329 206.213 329.458 206.342C329.588 206.472 329.753 206.56 329.932 206.596C330.112 206.632 330.298 206.613 330.467 206.543C330.636 206.473 330.781 206.354 330.883 206.202C330.984 206.05 331.039 205.871 331.039 205.688C331.032 205.444 330.929 205.212 330.753 205.044C330.576 204.875 330.34 204.783 330.096 204.787L330.113 204.762ZM315.935 194.254C315.751 194.254 315.572 194.308 315.42 194.41C315.267 194.512 315.149 194.658 315.079 194.827C315.009 194.997 314.991 195.183 315.028 195.363C315.064 195.543 315.153 195.708 315.283 195.837C315.414 195.966 315.579 196.054 315.759 196.088C315.94 196.123 316.126 196.104 316.295 196.032C316.464 195.961 316.608 195.841 316.709 195.688C316.809 195.534 316.862 195.355 316.861 195.171C316.858 195.047 316.829 194.925 316.778 194.812C316.726 194.699 316.652 194.598 316.56 194.514C316.468 194.431 316.36 194.367 316.242 194.326C316.125 194.286 316 194.27 315.876 194.279L315.935 194.254ZM320.555 197.59C320.372 197.59 320.192 197.644 320.04 197.746C319.888 197.848 319.769 197.994 319.699 198.163C319.629 198.333 319.612 198.519 319.648 198.699C319.684 198.879 319.773 199.044 319.904 199.173C320.034 199.302 320.2 199.39 320.38 199.424C320.56 199.459 320.746 199.44 320.915 199.368C321.084 199.297 321.228 199.177 321.329 199.024C321.43 198.87 321.483 198.691 321.481 198.507C321.478 198.383 321.45 198.26 321.398 198.147C321.346 198.033 321.272 197.932 321.181 197.847C321.089 197.763 320.981 197.699 320.863 197.657C320.746 197.616 320.621 197.599 320.497 197.606L320.555 197.59ZM334.558 201.309C334.375 201.309 334.196 201.364 334.044 201.465C333.892 201.567 333.773 201.712 333.703 201.881C333.633 202.05 333.614 202.236 333.65 202.416C333.686 202.595 333.774 202.76 333.903 202.89C334.033 203.019 334.198 203.107 334.377 203.143C334.557 203.179 334.743 203.16 334.912 203.09C335.081 203.02 335.226 202.902 335.328 202.749C335.43 202.597 335.484 202.418 335.484 202.235C335.482 202.11 335.454 201.986 335.403 201.872C335.352 201.758 335.278 201.655 335.186 201.57C335.094 201.485 334.986 201.42 334.868 201.378C334.75 201.336 334.625 201.318 334.5 201.326L334.558 201.309ZM320.764 204.846C320.581 204.846 320.402 204.9 320.249 205.002C320.097 205.103 319.979 205.248 319.908 205.417C319.838 205.586 319.82 205.772 319.856 205.952C319.891 206.131 319.98 206.296 320.109 206.426C320.239 206.555 320.404 206.644 320.583 206.679C320.763 206.715 320.949 206.697 321.118 206.627C321.287 206.557 321.432 206.438 321.533 206.286C321.635 206.133 321.689 205.954 321.689 205.771C321.687 205.646 321.66 205.523 321.609 205.408C321.558 205.294 321.484 205.191 321.392 205.106C321.3 205.021 321.192 204.956 321.074 204.914C320.956 204.872 320.83 204.854 320.705 204.862L320.764 204.846ZM334.7 186.564C334.517 186.564 334.338 186.619 334.186 186.72C334.033 186.822 333.915 186.967 333.845 187.136C333.775 187.305 333.756 187.491 333.792 187.671C333.828 187.85 333.916 188.015 334.045 188.145C334.175 188.274 334.34 188.362 334.519 188.398C334.699 188.434 334.885 188.415 335.054 188.345C335.223 188.275 335.368 188.157 335.47 188.004C335.571 187.852 335.626 187.673 335.626 187.49C335.624 187.365 335.596 187.241 335.545 187.127C335.494 187.013 335.42 186.91 335.328 186.825C335.236 186.74 335.128 186.674 335.01 186.633C334.892 186.591 334.766 186.573 334.641 186.581L334.7 186.564ZM334.7 193.82C334.517 193.82 334.338 193.874 334.186 193.976C334.033 194.078 333.915 194.222 333.845 194.392C333.775 194.561 333.756 194.747 333.792 194.926C333.828 195.106 333.916 195.271 334.045 195.4C334.175 195.53 334.34 195.618 334.519 195.654C334.699 195.689 334.885 195.671 335.054 195.601C335.223 195.531 335.368 195.412 335.47 195.26C335.571 195.108 335.626 194.929 335.626 194.746C335.624 194.621 335.596 194.497 335.545 194.383C335.494 194.268 335.42 194.166 335.328 194.081C335.236 193.996 335.128 193.93 335.01 193.888C334.892 193.846 334.766 193.829 334.641 193.837L334.7 193.82ZM330.155 182.728C329.971 182.728 329.793 182.782 329.64 182.884C329.488 182.986 329.369 183.13 329.299 183.299C329.229 183.469 329.211 183.655 329.247 183.834C329.282 184.014 329.371 184.179 329.5 184.308C329.629 184.438 329.794 184.526 329.974 184.562C330.154 184.597 330.34 184.579 330.509 184.509C330.678 184.439 330.823 184.32 330.924 184.168C331.026 184.016 331.08 183.837 331.08 183.654C331.078 183.528 331.051 183.405 331 183.291C330.949 183.176 330.875 183.073 330.783 182.988C330.691 182.903 330.583 182.838 330.465 182.796C330.346 182.754 330.221 182.737 330.096 182.745L330.155 182.728ZM335.159 178.116C334.975 178.116 334.797 178.17 334.644 178.272C334.492 178.374 334.373 178.518 334.303 178.687C334.233 178.856 334.215 179.043 334.251 179.222C334.286 179.402 334.375 179.567 334.504 179.696C334.633 179.826 334.798 179.914 334.978 179.95C335.158 179.985 335.344 179.967 335.513 179.897C335.682 179.827 335.827 179.708 335.928 179.556C336.03 179.404 336.084 179.225 336.084 179.042C336.083 178.916 336.057 178.792 336.006 178.677C335.955 178.562 335.882 178.459 335.789 178.374C335.697 178.288 335.588 178.223 335.47 178.182C335.351 178.14 335.225 178.123 335.1 178.133L335.159 178.116Z" fill="white"/>
<path d="M100.279 48.7458C97.7104 49.7549 88.7783 54.5838 83.5074 59.5878C80.9554 62.023 74.3334 69.8043 76.0765 71.9143C77.8195 74.0243 79.9295 71.9143 79.9295 71.9143C79.9295 71.9143 77.6277 75.6172 79.5542 77.5855C81.4808 79.5537 84.6917 76.1594 84.6917 76.1594C84.6917 76.1594 82.6067 80.1375 84.6917 81.9556C86.7767 83.7738 89.4038 79.8373 89.4038 79.8373C89.4038 79.8373 87.3355 83.3818 89.6623 84.1741C92.4646 85.1165 95.5504 78.1443 98.5111 75.5839C99.1866 75.0084 112.989 64.7919 112.989 64.7919L100.279 48.7458Z" fill="#EB9481"/>
<path d="M89.4705 79.8039C91.7473 74.6832 93.6405 72.8317 98.2192 69.7959C98.3026 69.7375 98.2191 69.5874 98.1357 69.6375C93.3736 72.2312 90.6715 74.2078 89.212 79.7289C89.1452 79.9791 89.3621 80.0458 89.4705 79.8039Z" fill="#263238"/>
<path d="M84.5332 76.3261C87.3605 71.2137 89.3871 69.1954 93.9574 65.6259C94.0241 65.5759 93.9574 65.4591 93.874 65.5092C89.1035 68.6283 86.4514 70.6633 84.2997 76.1427C84.1996 76.3929 84.4081 76.5597 84.5332 76.3261Z" fill="#263238"/>
<path d="M80.1797 71.4973C83.2822 66.7435 85.4006 64.4333 90.2878 61.5393C90.3049 61.5228 90.316 61.5012 90.3196 61.4777C90.3232 61.4543 90.319 61.4303 90.3076 61.4095C90.2962 61.3887 90.2784 61.3721 90.2567 61.3625C90.2351 61.3528 90.2108 61.3504 90.1877 61.3558C84.9252 63.8578 82.2564 66.6851 80.0463 71.3639C79.8962 71.7058 79.9879 71.7975 80.1797 71.4973Z" fill="#263238"/>
<path d="M116.784 63.666C116.784 63.666 113.448 69.8627 111.413 72.2646C109.378 74.6665 98.411 80.7881 96.9515 78.4946C95.0666 75.5422 100.696 70.755 103.757 68.7785C103.757 68.7785 99.3951 61.9397 102.698 57.6362C106 53.3328 116.784 63.666 116.784 63.666Z" fill="#EB9481"/>
<path d="M96.718 77.4937C96.9515 73.5656 101.138 71.2221 103.957 69.0787C104 69.0487 104.035 69.0088 104.059 68.9623C104.084 68.9159 104.096 68.8642 104.096 68.8118C104.096 68.7594 104.084 68.7077 104.059 68.6613C104.035 68.6148 104 68.5749 103.957 68.5449C102.289 65.5509 100.88 60.8638 102.481 57.6445C102.488 57.6261 102.488 57.6058 102.482 57.5872C102.475 57.5686 102.462 57.5529 102.445 57.5429C102.428 57.5329 102.408 57.5292 102.389 57.5326C102.369 57.5359 102.352 57.546 102.339 57.5611C100.154 60.7804 101.197 65.5008 103.173 68.6617C100.246 70.8134 96.1508 73.3488 96.6596 77.4937H96.718Z" fill="#263238"/>
<path d="M123.039 98.4522C133.989 82.014 141.804 47.82 133.964 43.9169C126.358 40.1306 112.431 42.1655 99.0615 49.2295C97.1183 50.2637 100.571 53.0409 105.316 59.1708C107.56 62.0731 109.995 73.5072 112.164 71.3138C113.39 70.0628 117.334 68.1196 118.677 67.5191C119.778 67.0271 115.258 87.2766 113.048 94.8993C109.512 107.092 120.12 102.864 123.039 98.4522Z" fill="#EB9481"/>
<path d="M129.294 86.4843C127.587 90.6584 125.496 94.6649 123.047 98.4522C120.487 102.297 112.105 106.008 112.347 98.8108L129.294 86.4843Z" fill="#263238"/>
<path d="M58.9127 102.113C59.1379 99.3612 61.6816 90.1872 64.9759 83.6904C66.5772 80.5379 72.1233 72.0144 74.642 73.0152C77.1607 74.016 75.7512 76.7098 75.7512 76.7098C75.7512 76.7098 78.6368 73.4405 81.0721 74.7165C83.5074 75.9926 81.1889 80.0458 81.1889 80.0458C81.1889 80.0458 84.3998 76.91 86.735 78.3778C89.0702 79.8456 86.0678 83.5069 86.0678 83.5069C86.0678 83.5069 88.87 80.5045 90.2878 82.5061C91.9975 84.9164 86.2096 89.8787 84.6166 93.4482C84.258 94.2822 78.4617 110.428 78.4617 110.428L58.9127 102.113Z" fill="#EB9481"/>
<path d="M86.0678 83.5653C81.8144 87.2265 80.5884 89.5617 78.9788 94.8326C78.9788 94.941 78.787 94.916 78.812 94.8326C79.9212 89.52 81.0304 86.3675 85.901 83.3734C86.1345 83.2066 86.2679 83.3901 86.0678 83.5653Z" fill="#263238"/>
<path d="M81.314 79.8456C77.2357 84.0156 75.8846 86.5176 73.808 91.9553C73.808 92.0304 73.6495 91.9553 73.6745 91.9053C75.2842 86.4342 76.4684 83.3151 81.0971 79.6705C81.2806 79.512 81.4975 79.6538 81.314 79.8456Z" fill="#263238"/>
<path d="M75.4343 77.0684C71.773 81.4052 70.1717 84.1074 68.8123 89.5784C68.8058 89.6011 68.7922 89.621 68.7734 89.6352C68.7546 89.6494 68.7316 89.6571 68.7081 89.6571C68.6845 89.6571 68.6616 89.6494 68.6428 89.6352C68.624 89.621 68.6103 89.6011 68.6038 89.5784C69.4378 83.8238 71.4227 80.4044 75.2758 76.9683C75.551 76.7348 75.6595 76.7932 75.4343 77.0684Z" fill="#263238"/>
<path d="M78.4784 114.398C78.4784 114.398 83.4824 109.436 85.1504 106.775C86.8184 104.115 89.5622 91.8636 86.9518 91.1296C83.5741 90.1789 80.6218 96.9676 79.6043 100.454C79.6043 100.454 71.798 98.2437 68.6288 102.647C65.4596 107.051 78.4784 114.398 78.4784 114.398Z" fill="#EB9481"/>
<path d="M85.926 91.188C82.2314 92.5474 81.1889 97.2262 79.9546 100.554C79.9387 100.604 79.911 100.649 79.8739 100.686C79.8368 100.723 79.7913 100.75 79.7414 100.765C79.6915 100.781 79.6386 100.784 79.5871 100.775C79.5357 100.766 79.4872 100.744 79.4458 100.712C76.1098 100.003 71.2059 99.9784 68.6038 102.439C68.5887 102.452 68.5691 102.46 68.5488 102.46C68.5284 102.46 68.5087 102.453 68.4933 102.44C68.478 102.426 68.468 102.408 68.4653 102.388C68.4626 102.368 68.4674 102.347 68.4787 102.33C70.9307 99.3112 75.7512 98.9442 79.3207 99.945C80.5384 96.5173 81.781 91.8635 85.901 91.1546C85.926 91.138 85.9677 91.188 85.926 91.188Z" fill="#263238"/>
<path d="M160.986 90.4041C160.986 90.4041 167.283 99.9617 171.286 136.024C171.286 136.024 124.582 132.329 110.404 123.514C103.965 119.519 103.799 114.39 106.459 109.478C107.118 108.26 120.178 94.8159 125.716 92.5641C130.612 90.5709 137.084 93.5816 137.084 93.5816L160.986 90.4041Z" fill="#EB9481"/>
<path d="M105.867 113.214C107.752 109.97 115.992 108.494 120.57 109.177C125.149 109.861 130.829 115.658 128.468 120.253C126.108 124.848 110.387 123.539 110.387 123.539C110.387 123.539 121.112 131.537 141.504 132.346C141.504 132.346 148.293 119.427 141.504 93.0145L137.4 93.5316C137.4 93.5316 132.321 90.5542 127.226 91.6967C120.637 93.1729 108.194 104.532 106.442 109.536C104.691 114.54 105.175 117.551 105.175 117.551C105.175 117.551 104.941 114.807 105.867 113.214Z" fill="#455A64"/>
<path d="M118.852 122.163C103.373 132.321 67.1443 143.33 61.1729 136.95C55.3349 130.753 57.1947 108.001 59.0212 100.812C59.5633 98.6774 63.6332 101.913 70.8723 104.69C74.3084 106 85.9594 105.041 84.4748 107.743C83.6408 109.277 80.3966 116.867 82.4816 117.259C83.6659 117.484 99.4535 112.847 112.556 111.154C127.626 109.219 123.289 119.252 118.852 122.163Z" fill="#EB9481"/>
<path d="M80.3882 74.0577C78.3116 71.172 72.9907 66.927 67.5113 68.8952C55.7602 73.0652 58.9127 91.138 51.265 103.606C42.0242 118.66 42.925 130.603 52.099 131.579C62.4322 132.663 71.0141 120.97 68.0284 98.2186C66.1602 83.9989 69.5629 77.1935 72.5236 77.2686C74.4501 77.387 76.31 78.0175 77.9113 79.095L80.3882 74.0577Z" fill="#263238"/>
<path d="M67.211 90.354C67.3445 92.6308 67.7365 94.8743 68.045 97.1261C68.3536 99.3779 68.7122 101.621 68.9708 103.873C69.2293 106.125 69.4211 108.377 69.4462 110.629C69.5067 112.863 69.3418 115.099 68.9541 117.301C68.5997 119.502 67.8238 121.615 66.6689 123.522C65.4335 125.411 63.8784 127.071 62.0736 128.426C60.2597 129.821 58.1473 130.778 55.902 131.22C54.7735 131.44 53.6221 131.518 52.4743 131.454C51.8994 131.418 51.3279 131.34 50.7646 131.22C50.186 131.131 49.6238 130.957 49.0966 130.703C50.1291 131.264 51.2633 131.613 52.4326 131.729C53.6093 131.879 54.8003 131.879 55.9771 131.729C57.1597 131.567 58.3188 131.264 59.4298 130.828C60.5346 130.375 61.5861 129.801 62.5657 129.118C63.5412 128.443 64.4489 127.675 65.2762 126.825L65.91 126.216L66.4938 125.549C66.8774 125.092 67.2339 124.613 67.5613 124.114C68.8144 122.11 69.6643 119.881 70.0633 117.551C70.7287 112.988 70.6583 108.347 69.8548 103.806C69.5212 101.546 69.0792 99.3112 68.6122 97.0844C68.1451 94.8576 67.578 92.6142 67.211 90.354Z" fill="#263238"/>
<path d="M79.4125 72.9318C78.3557 71.7561 77.1567 70.7168 75.8429 69.8376C74.5293 68.9982 73.0448 68.4625 71.4978 68.2697C69.9689 68.097 68.4207 68.2592 66.9608 68.7451C66.2373 69.002 65.537 69.3201 64.8675 69.6959C64.1984 70.0608 63.5671 70.491 62.9827 70.9802C61.8505 72.0014 60.9051 73.2122 60.1888 74.5581C59.4836 75.936 58.9246 77.3839 58.5208 78.8782C57.6367 81.8722 57.1196 84.9997 56.4691 88.1189C55.8678 91.2657 55.0315 94.3629 53.9671 97.3846C52.7651 100.352 51.3346 103.221 49.6887 105.967C48.0354 108.647 46.5589 111.433 45.2685 114.307C44.6304 115.741 44.1791 117.252 43.9258 118.802L43.7673 119.969C43.7673 120.361 43.7673 120.753 43.7673 121.145V121.737L43.834 122.33L43.9591 123.514C43.2603 120.364 43.5277 117.077 44.7264 114.081C45.9234 111.12 47.3165 108.242 48.8964 105.466C50.4233 102.712 51.7635 99.8593 52.9079 96.926C53.9078 93.9633 54.6856 90.9303 55.2348 87.852C55.9103 84.7662 56.4357 81.6221 57.3782 78.5279C57.8367 76.9663 58.4572 75.4569 59.2297 74.0243C60.031 72.5762 61.0976 71.2917 62.3738 70.238C63.0211 69.7274 63.7199 69.2858 64.4588 68.9202C65.1864 68.5436 65.9455 68.2311 66.7273 67.9861C68.2906 67.4916 69.9491 67.3758 71.566 67.6485C73.1828 67.9211 74.7117 68.5742 76.0264 69.5541C77.3062 70.5176 78.4458 71.6544 79.4125 72.9318Z" fill="#263238"/>
<path d="M83.5658 74.2912C82.9236 73.3321 81.3974 72.6232 80.6718 72.865C79.9462 73.1069 76.8187 78.2527 77.2524 79.6788C77.6861 81.105 80.4049 80.713 80.4049 80.713L83.5658 74.2912Z" fill="#9FFF9E"/>
<path d="M107.176 108.001C108.11 108.343 119.528 106.258 123.723 98.9109C125.124 96.4589 113.465 98.4939 113.465 98.4939L113.048 98.0602L107.21 92.022L96.768 96.6507L95.3168 97.368C95.3168 97.368 96.9848 98.9109 99.1699 100.821L99.4702 101.096C99.5869 101.204 99.7037 101.313 99.8204 101.405C100.129 101.696 100.454 101.988 100.788 102.28L101.547 102.931L102.339 103.598C104.991 105.783 106.776 107.868 107.176 108.001Z" fill="#EB9481"/>
<path d="M99.1532 100.821C101.531 101.399 104.005 101.451 106.405 100.974C108.805 100.498 111.072 99.5031 113.048 98.0602L107.21 92.022L96.768 96.6507L95.3168 97.368C95.3168 97.368 97.0099 98.9109 99.1532 100.821Z" fill="#263238"/>
<path d="M106.909 75.8007C116.726 86.7928 111.246 93.9152 108.878 96.0336C106.718 97.9518 99.1366 104.215 88.2362 94.2905C77.3358 84.3659 79.3457 76.3261 84.0662 71.6724C88.7866 67.0187 97.0933 64.8003 106.909 75.8007Z" fill="#EB9481"/>
<path d="M103.665 75.2836C103.374 75.4612 103.073 75.6227 102.764 75.7674C102.475 75.9809 102.124 76.095 101.764 76.0926C101.651 76.069 101.549 76.0088 101.473 75.9214C101.398 75.8339 101.353 75.7241 101.347 75.6089C101.372 75.3787 101.456 75.1591 101.592 74.9718C101.728 74.7845 101.911 74.6361 102.122 74.5414C102.524 74.289 103.005 74.194 103.473 74.2745C103.578 74.3012 103.672 74.3571 103.746 74.4356C103.82 74.5142 103.87 74.6122 103.89 74.7181C103.91 74.824 103.9 74.9334 103.86 75.0336C103.82 75.1338 103.753 75.2205 103.665 75.2836Z" fill="#263238"/>
<path d="M95.934 81.8222C96.1599 81.5576 96.3688 81.2791 96.5595 80.9882C96.8174 80.7316 96.9844 80.3977 97.0349 80.0375C97.0282 79.9222 96.9837 79.8124 96.9083 79.725C96.8329 79.6375 96.7309 79.5773 96.6179 79.5537C96.3874 79.5404 96.1575 79.5891 95.9522 79.6947C95.7468 79.8003 95.5735 79.959 95.4503 80.1542C95.1366 80.511 94.9671 80.9719 94.9749 81.4469C94.9777 81.5568 95.0129 81.6635 95.076 81.7535C95.1392 81.8435 95.2275 81.9129 95.3299 81.9529C95.4323 81.993 95.5442 82.002 95.6517 81.9787C95.7591 81.9555 95.8573 81.901 95.934 81.8222Z" fill="#263238"/>
<path d="M100.104 83.0565C100.104 83.0565 100.104 83.1483 100.104 83.1733C100.796 83.9072 101.472 84.8413 101.021 85.6753H101.063C101.772 84.883 100.855 83.682 100.104 83.0565Z" fill="#263238"/>
<path d="M98.7112 82.848C97.4268 83.8322 99.4952 86.3341 100.688 85.4167C101.88 84.4993 99.7871 82.014 98.7112 82.848Z" fill="#263238"/>
<path d="M98.3359 83.4151C98.2275 83.7321 98.2275 84.1574 97.9856 84.4076C97.8205 84.5182 97.6307 84.5866 97.433 84.607C97.2353 84.6273 97.0356 84.599 96.8514 84.5244C96.8514 84.5244 96.8014 84.5244 96.8514 84.5911C97.0008 84.853 97.2451 85.0474 97.5338 85.1343C97.8224 85.2212 98.1335 85.194 98.4026 85.0581C98.6312 84.8661 98.7806 84.5963 98.8222 84.3007C98.8638 84.005 98.7945 83.7045 98.6278 83.4569C98.5611 83.3484 98.3693 83.2817 98.3359 83.4151Z" fill="#263238"/>
<path d="M104.274 79.3369C104.274 79.3369 104.357 79.3369 104.382 79.3369C104.991 80.1292 105.825 80.9465 106.743 80.6296C106.743 80.6296 106.801 80.6296 106.743 80.6796C105.784 81.2801 104.691 80.1959 104.274 79.3369Z" fill="#263238"/>
<path d="M104.274 77.9608C105.45 76.8432 107.61 79.2785 106.509 80.3127C105.408 81.3468 103.29 78.8949 104.274 77.9608Z" fill="#263238"/>
<path d="M104.925 77.6772C105.233 77.6355 105.625 77.6772 105.867 77.5104C106.109 77.3436 106.117 76.8599 106.067 76.4596C106.067 76.4596 106.067 76.4596 106.125 76.4596C106.357 76.6382 106.516 76.8934 106.576 77.1793C106.636 77.4652 106.591 77.7631 106.451 78.0192C106.117 78.4528 105.467 78.3194 104.95 77.9524C104.849 77.844 104.799 77.6939 104.925 77.6772Z" fill="#263238"/>
<path d="M105.241 89.52C105.576 89.6411 105.941 89.6411 106.276 89.52C106.564 89.2913 106.805 89.0079 106.984 88.686C106.984 88.686 107.043 88.686 107.051 88.686C107.052 88.9294 106.988 89.1685 106.866 89.3794C106.745 89.5902 106.57 89.7653 106.359 89.887C106.163 89.9673 105.948 89.988 105.74 89.9465C105.532 89.9049 105.341 89.803 105.191 89.6535C105.174 89.6468 105.159 89.6334 105.152 89.6162C105.144 89.599 105.143 89.5794 105.15 89.5617C105.156 89.544 105.17 89.5297 105.187 89.5219C105.204 89.5141 105.224 89.5134 105.241 89.52Z" fill="#263238"/>
<path d="M106.1 83.999C106.1 83.999 107.226 85.0081 107.685 85.5502C107.685 85.6002 107.618 85.7337 107.443 85.9005C107.05 86.385 106.53 86.7497 105.94 86.9532C105.35 87.1566 104.715 87.1907 104.107 87.0514C104.032 87.0514 104.049 86.918 104.107 86.9096C105.196 86.8013 106.221 86.3418 107.026 85.6002C106.934 85.4167 105.033 83.9322 105.116 83.8572C105.567 83.5399 106.058 83.2847 106.576 83.0982C104.291 80.9215 101.672 79.1367 99.4285 76.935C99.4086 76.9206 99.3952 76.8989 99.3913 76.8747C99.3873 76.8504 99.3932 76.8256 99.4076 76.8057C99.422 76.7858 99.4437 76.7724 99.4679 76.7685C99.4922 76.7646 99.517 76.7705 99.5369 76.7849C102.402 78.613 105.076 80.7254 107.518 83.0899C107.852 83.3735 106.392 83.9072 106.1 83.999Z" fill="#263238"/>
<path d="M107.143 85.7086C107.227 86.4055 107.129 87.1122 106.859 87.7603C106.704 88.1108 106.441 88.4028 106.109 88.5943C105.383 89.0113 104.849 88.4942 104.516 87.9354C104.336 87.6368 104.194 87.3175 104.091 86.9847C105.218 86.8974 106.288 86.45 107.143 85.7086Z" fill="#263238"/>
<path d="M106.859 87.7603C106.704 88.1108 106.441 88.4028 106.109 88.5943C105.383 89.0113 104.849 88.4942 104.516 87.9354C104.83 87.6465 105.232 87.472 105.657 87.4402C106.083 87.4084 106.506 87.5212 106.859 87.7603Z" fill="#FF9BBC"/>
<path d="M89.8124 94.4156C90.905 93.2313 90.8633 87.1598 85.5924 81.4886C85.5924 81.4886 89.9709 86.9096 90.2962 88.0021C90.6214 89.0947 90.2962 84.5994 86.0761 79.9624C88.469 79.619 90.8003 78.9337 92.9983 77.9274C95.7005 76.4846 96.9848 75.2086 96.9848 74.9084C96.9848 74.6081 92.9149 76.6264 91.1468 76.4679C91.1468 76.4679 99.3284 73.6657 102.131 71.3639C102.456 71.097 96.8597 64.5501 90.2962 65.7844C83.7326 67.0187 80.0797 75.9925 79.9546 79.3035C79.9546 79.3035 78.2198 81.522 78.887 86.6094C79.5542 91.6968 88.6365 95.6833 89.8124 94.4156Z" fill="#263238"/>
<path d="M91.8391 98.3604C92.0653 98.2963 92.2835 98.2068 92.4896 98.0935C92.6979 97.9898 92.8892 97.8548 93.0567 97.6932C93.2822 97.4907 93.459 97.2398 93.5738 96.9593C93.6685 96.7446 93.7304 96.5169 93.7573 96.2838C93.8168 95.9556 93.8168 95.6195 93.7573 95.2913L90.7382 92.6225C90.7382 92.6225 85.4089 90.8711 84.4248 93.0395C83.4407 95.2079 89.3287 99.1027 91.8391 98.3604Z" fill="#EB9481"/>
<path d="M86.1095 94.107C86.1095 94.107 86.1095 94.1821 86.1095 94.1654C87.9026 93.6984 89.5873 94.4323 91.1135 95.3747C90.9307 95.2963 90.7331 95.2588 90.5344 95.2646C90.3356 95.2704 90.1406 95.3195 89.9627 95.4084C89.7849 95.4973 89.6286 95.6239 89.5047 95.7794C89.3808 95.9349 89.2923 96.1156 89.2453 96.3088C89.2453 96.3588 89.3037 96.3922 89.3371 96.3505C89.5218 96.094 89.7809 95.9005 90.0792 95.7961C90.3775 95.6917 90.7007 95.6814 91.0051 95.7667C91.5135 95.9234 92.0052 96.1302 92.4729 96.3839C92.623 96.4506 92.7982 96.2254 92.648 96.117C91.322 94.3155 88.1278 92.856 86.1095 94.107Z" fill="#263238"/>
<path d="M91.6306 97.7433C91.6978 97.8031 91.7763 97.8491 91.8613 97.8786C91.9464 97.9081 92.0365 97.9205 92.1264 97.9151C92.2163 97.9096 92.3042 97.8865 92.3852 97.847C92.4661 97.8075 92.5384 97.7524 92.598 97.6849C92.6576 97.6183 92.7034 97.5406 92.7328 97.4562C92.7622 97.3717 92.7745 97.2823 92.7691 97.1931C92.7636 97.1039 92.7406 97.0167 92.7012 96.9365C92.6618 96.8562 92.6069 96.7847 92.5396 96.7258C92.4039 96.6059 92.2265 96.544 92.0457 96.5534C91.8648 96.5628 91.6948 96.6426 91.5722 96.7758C91.5123 96.8431 91.4663 96.9215 91.4368 97.0066C91.4074 97.0917 91.395 97.1818 91.4004 97.2717C91.4058 97.3616 91.429 97.4495 91.4685 97.5304C91.5079 97.6114 91.563 97.6837 91.6306 97.7433Z" fill="white"/>
<path d="M89.8875 97.7599C89.9837 97.8451 90.1098 97.8886 90.2381 97.8807C90.3663 97.8729 90.4862 97.8145 90.5714 97.7182C90.6565 97.622 90.7 97.4959 90.6922 97.3677C90.6843 97.2394 90.6259 97.1195 90.5297 97.0344C90.4335 96.9492 90.3073 96.9058 90.1791 96.9136C90.0508 96.9214 89.9309 96.9799 89.8458 97.0761C89.7606 97.1723 89.7172 97.2984 89.725 97.4266C89.7328 97.5549 89.7913 97.6748 89.8875 97.7599Z" fill="white"/>
<path d="M87.9026 97.443C86.7143 96.7061 85.6527 95.7824 84.7584 94.7075C84.4915 94.2571 84.1412 93.5232 84.4165 93.0395C84.4582 92.9644 84.4165 92.9478 84.3497 93.0395C84.1369 93.4884 84.1041 94.0017 84.258 94.474C84.4755 94.9915 84.7994 95.4575 85.2088 95.8417C85.9729 96.5811 86.8854 97.1496 87.8859 97.5097C87.8859 97.5097 87.9276 97.4597 87.9026 97.443Z" fill="#263238"/>
<path d="M102.206 71.3555C102.122 71.3555 102.064 71.3555 102.139 71.3555C102.564 71.6974 106.309 75.292 106.734 75.6089L106.793 75.5589C106.526 75.1836 103.824 72.1561 102.206 71.3555Z" fill="#263238"/>
<path d="M317.386 224.761C315.151 225.445 250.266 223.694 247.889 222.126C247.773 222.019 247.687 221.884 247.639 221.734C246.93 219.799 248.289 211.551 248.222 201.426C248.222 201.243 248.373 198.09 248.581 193.553C249.14 181.785 250.157 161.027 250.157 161.027L292.458 161.861L289.005 202.218C289.005 202.218 312.983 213.619 315.384 215.621C317.786 217.622 319.613 224.078 317.386 224.761Z" fill="#EB9481"/>
<path d="M317.386 224.761C315.151 225.445 250.266 223.694 247.889 222.126C247.773 222.019 247.687 221.884 247.639 221.734C246.93 219.799 248.289 211.551 248.222 201.426C248.222 201.243 248.373 198.09 248.581 193.553L289.656 194.637L289.005 202.252C289.005 202.252 312.983 213.653 315.384 215.654C317.786 217.656 319.613 224.078 317.386 224.761Z" fill="white"/>
<path d="M317.386 224.761C315.159 225.445 250.266 223.694 247.889 222.118C246.98 221.526 246.621 212.885 248.222 201.434L289.005 202.268C289.005 202.268 312.974 213.653 315.393 215.663C317.811 217.672 319.613 224.069 317.386 224.761Z" fill="#9FFF9E"/>
<path d="M316.535 222.209C305.944 221.701 263.159 220.667 252.634 220.975C252.551 220.975 252.551 221.033 252.634 221.042C263.126 221.776 305.927 222.46 316.535 222.385C316.761 222.376 316.761 222.218 316.535 222.209Z" fill="#263238"/>
<path d="M311.381 213.286C310.203 213.23 309.026 213.418 307.924 213.839C306.821 214.259 305.818 214.903 304.976 215.729C303.452 217.209 302.556 219.219 302.474 221.342C302.474 221.4 302.591 221.409 302.608 221.342C303.015 219.251 304.09 217.349 305.67 215.92C307.251 214.492 309.252 213.614 311.373 213.419C311.391 213.42 311.408 213.414 311.421 213.402C311.435 213.391 311.443 213.374 311.444 213.357C311.445 213.339 311.439 213.321 311.427 213.308C311.415 213.295 311.399 213.287 311.381 213.286Z" fill="#263238"/>
<path d="M293.092 203.403C288.855 203.253 283.918 204.637 281.182 208.04C281.074 208.173 281.265 208.323 281.391 208.265C285.146 206.401 289.091 204.947 293.158 203.928C293.221 203.912 293.276 203.873 293.313 203.82C293.349 203.766 293.365 203.701 293.357 203.636C293.349 203.571 293.317 203.512 293.268 203.469C293.22 203.426 293.157 203.403 293.092 203.403Z" fill="#263238"/>
<path d="M296.344 204.762C292.099 204.604 287.17 205.988 284.426 209.399C284.318 209.533 284.51 209.674 284.635 209.616C288.392 207.756 292.337 206.302 296.403 205.279C296.46 205.259 296.508 205.22 296.54 205.169C296.573 205.118 296.586 205.057 296.58 204.997C296.573 204.937 296.546 204.881 296.503 204.839C296.46 204.796 296.404 204.769 296.344 204.762Z" fill="#263238"/>
<path d="M299.588 206.113C295.343 205.955 290.414 207.339 287.671 210.75C287.571 210.884 287.754 211.025 287.887 210.967C291.64 209.106 295.583 207.655 299.647 206.639C299.709 206.623 299.764 206.585 299.801 206.532C299.837 206.479 299.853 206.415 299.846 206.351C299.839 206.287 299.809 206.227 299.762 206.184C299.714 206.14 299.653 206.115 299.588 206.113Z" fill="#263238"/>
<path d="M302.833 207.464C298.596 207.306 293.659 208.69 290.923 212.101C290.815 212.235 291.007 212.385 291.132 212.318C294.889 210.46 298.834 209.008 302.899 207.99C302.962 207.974 303.017 207.935 303.054 207.881C303.091 207.827 303.106 207.762 303.098 207.698C303.09 207.633 303.058 207.574 303.009 207.531C302.961 207.488 302.898 207.464 302.833 207.464Z" fill="#263238"/>
<path d="M255.57 210.967C250.808 210.875 250.649 218.273 255.42 218.365C260.19 218.456 260.34 211.067 255.57 210.967Z" fill="#263238"/>
<path d="M297.945 192.185C295.835 190.359 293.092 192.035 291.724 193.853C289.434 197.017 288.016 200.727 287.612 204.612C287.611 204.63 287.613 204.647 287.62 204.664C287.626 204.68 287.636 204.695 287.649 204.707C287.662 204.719 287.677 204.728 287.694 204.733C287.711 204.738 287.728 204.74 287.746 204.737C287.761 204.817 287.795 204.891 287.844 204.955C287.894 205.019 287.957 205.071 288.03 205.106C288.103 205.141 288.184 205.158 288.265 205.156C288.345 205.154 288.425 205.134 288.496 205.096C291.565 203.069 295.102 201.293 297.462 198.424C298.838 196.706 299.93 193.92 297.945 192.185ZM292.525 201.084C291.04 202.118 289.514 203.069 288.071 204.153C288.797 202.035 289.632 199.956 290.573 197.923C291.044 196.945 291.581 196 292.183 195.096C293.142 193.712 297.387 190.259 297.704 194.888C297.912 197.44 294.301 199.858 292.525 201.084Z" fill="#263238"/>
<path d="M277.037 205.946C280.715 206.597 284.543 205.638 288.196 205.112C288.276 205.095 288.35 205.058 288.413 205.007C288.476 204.955 288.526 204.889 288.558 204.814C288.591 204.739 288.605 204.657 288.6 204.576C288.595 204.495 288.571 204.415 288.53 204.345C288.543 204.335 288.555 204.322 288.562 204.307C288.57 204.291 288.574 204.275 288.574 204.258C288.574 204.241 288.57 204.224 288.562 204.208C288.555 204.193 288.543 204.18 288.53 204.17C285.686 201.515 282.194 199.654 278.405 198.774C276.178 198.29 273.001 198.774 272.567 201.576C272.233 204.178 274.885 205.563 277.037 205.946ZM274.535 203.444C271.75 199.741 277.221 199.575 278.847 199.992C279.893 200.286 280.918 200.648 281.916 201.076C284.001 201.91 285.928 203.069 287.912 204.128C286.111 204.253 284.326 204.537 282.533 204.729C280.381 204.979 276.078 205.521 274.527 203.469L274.535 203.444Z" fill="#263238"/>
<path d="M169.685 136.024C187.541 139.276 246.413 123.472 249.665 128.726C252.542 133.355 249.665 167.274 249.665 167.274H292.199C292.199 167.274 299.021 125.182 291.09 102.864C289.797 99.2111 285.394 94.841 279.314 90.2289C257.63 73.8242 169.493 89.2448 169.493 89.2448L169.685 136.024Z" fill="#263238"/>
<path d="M273.376 153.688V162.195L250.583 153.263C250.716 150.544 250.833 147.675 250.891 144.881L273.376 153.688Z" fill="#9FFF9E"/>
<path d="M273.376 138.826V147.325L250.925 138.526C250.858 134.689 250.616 131.47 250.091 129.694L273.376 138.826Z" fill="#9FFF9E"/>
<path d="M311.44 11.7912C310.897 14.068 276.495 69.1037 273.91 70.3714C273.762 70.4071 273.607 70.4071 273.459 70.3714C271.424 70.0044 265.002 64.6501 256.245 59.5794C256.087 59.4877 253.427 57.7446 249.64 55.276L219.7 47.6532L241.884 11.6244L271.391 20.4315L277.629 24.8517C277.629 24.8517 299.605 9.96477 302.549 8.89725C305.493 7.82973 311.94 9.53109 311.44 11.7912Z" fill="#EB9481"/>
<path d="M311.44 11.7912C310.897 14.068 276.495 69.1037 273.91 70.3714C273.762 70.4071 273.607 70.4071 273.459 70.3714C271.424 70.0044 265.002 64.6501 256.245 59.5794C256.087 59.4877 253.427 57.7446 249.64 55.276L271.391 20.4231L277.629 24.8433C277.629 24.8433 299.605 9.95644 302.549 8.88892C305.493 7.82139 311.94 9.53109 311.44 11.7912Z" fill="white"/>
<path d="M311.44 11.7912C310.897 14.0597 276.503 69.112 273.91 70.363C272.934 70.8384 265.311 66.7768 256.254 59.5878L277.629 24.8517C277.629 24.8517 299.597 9.96476 302.557 8.89724C305.518 7.82972 311.94 9.52275 311.44 11.7912Z" fill="#9FFF9E"/>
<path d="M308.804 11.2324C302.966 20.1145 280.448 56.4686 275.361 65.6926C275.319 65.7677 275.361 65.7927 275.411 65.6926C281.357 57.019 303.642 20.4732 308.954 11.2908C309.063 11.124 308.929 11.0406 308.804 11.2324Z" fill="#263238"/>
<path d="M298.504 11.124C297.857 12.1099 297.422 13.2193 297.225 14.382C297.028 15.5447 297.075 16.7356 297.362 17.8794C297.864 19.9443 299.142 21.7364 300.931 22.8834C300.99 22.8834 301.048 22.8167 300.998 22.775C299.403 21.3678 298.307 19.4817 297.874 17.3994C297.441 15.317 297.694 13.1504 298.596 11.2241C298.603 11.2181 298.608 11.2108 298.612 11.2027C298.615 11.1947 298.618 11.1859 298.618 11.177C298.618 11.1681 298.617 11.1592 298.614 11.1508C298.611 11.1425 298.606 11.1348 298.6 11.1282C298.594 11.1216 298.587 11.1163 298.579 11.1125C298.571 11.1088 298.562 11.1066 298.553 11.1062C298.544 11.1059 298.535 11.1072 298.527 11.1103C298.519 11.1133 298.511 11.118 298.504 11.124Z" fill="#263238"/>
<path d="M280.715 21.9076C278.43 25.4855 277.112 30.4561 278.68 34.5344C278.738 34.6845 278.964 34.6011 278.972 34.4593C279.275 30.2804 280.021 26.1456 281.199 22.1245C281.218 22.0621 281.214 21.9947 281.188 21.9351C281.161 21.8755 281.113 21.8277 281.053 21.801C280.994 21.7743 280.926 21.7704 280.864 21.79C280.802 21.8097 280.749 21.8515 280.715 21.9076Z" fill="#263238"/>
<path d="M283.526 19.7976C281.24 23.3755 279.923 28.3461 281.491 32.416C281.549 32.5745 281.774 32.4828 281.783 32.3493C282.086 28.1677 282.832 24.0301 284.009 20.0061C284.025 19.9447 284.018 19.8798 283.99 19.8231C283.962 19.7664 283.914 19.7215 283.856 19.6964C283.798 19.6713 283.733 19.6678 283.672 19.6863C283.612 19.7048 283.56 19.7443 283.526 19.7976Z" fill="#263238"/>
<path d="M286.336 17.6793C284.051 21.2571 282.733 26.2361 284.301 30.306C284.36 30.4645 284.585 30.3728 284.593 30.231C284.896 26.0521 285.643 21.9172 286.82 17.8961C286.84 17.8337 286.836 17.7663 286.809 17.7067C286.782 17.6471 286.734 17.5994 286.674 17.5726C286.615 17.5459 286.547 17.542 286.485 17.5616C286.423 17.5813 286.37 17.6231 286.336 17.6793Z" fill="#263238"/>
<path d="M289.155 15.5692C286.87 19.1471 285.552 24.1177 287.112 28.1877C287.17 28.3461 287.395 28.2627 287.404 28.1209C287.707 23.942 288.453 19.8072 289.63 15.7861C289.644 15.7263 289.637 15.6636 289.609 15.6087C289.582 15.5538 289.537 15.5099 289.481 15.4845C289.425 15.459 289.362 15.4535 289.303 15.469C289.244 15.4844 289.191 15.5198 289.155 15.5692Z" fill="#263238"/>
<path d="M268.213 58.0866C265.711 62.1481 272.016 66.0346 274.518 61.9647C277.02 57.8948 270.715 54.025 268.213 58.0866Z" fill="#263238"/>
<path d="M273.501 12.0414C270.857 12.9338 270.907 16.153 271.783 18.2547C273.351 21.8313 275.834 24.932 278.98 27.2452C278.994 27.2572 279.01 27.2655 279.028 27.2695C279.046 27.2734 279.064 27.2729 279.082 27.2679C279.099 27.2629 279.115 27.2537 279.128 27.241C279.141 27.2283 279.15 27.2125 279.155 27.1952C279.464 27.2786 279.873 27.1118 279.848 26.7282C279.664 23.0586 279.923 19.1137 278.613 15.6109C277.854 13.5676 276.003 11.2074 273.501 12.0414ZM278.43 21.2154C278.563 23.0169 278.613 24.8183 278.814 26.6114C277.36 24.901 275.996 23.1167 274.727 21.2655C274.12 20.3633 273.579 19.4184 273.109 18.4382C272.4 16.9203 271.583 11.5077 275.728 13.5843C278.013 14.7352 278.271 19.072 278.43 21.2238V21.2154Z" fill="#263238"/>
<path d="M274.769 37.0447C277.196 34.2008 278.313 30.3727 279.773 27.0367C279.799 26.9598 279.807 26.8777 279.796 26.7971C279.784 26.7165 279.753 26.6399 279.706 26.5738C279.658 26.5076 279.596 26.4537 279.523 26.4167C279.451 26.3797 279.37 26.3607 279.289 26.3612C279.29 26.3427 279.287 26.3241 279.279 26.3072C279.271 26.2903 279.259 26.2757 279.244 26.2648C279.229 26.2539 279.212 26.2471 279.193 26.245C279.175 26.2429 279.156 26.2456 279.139 26.2528C275.39 27.3465 271.995 29.409 269.298 32.2326C267.755 33.9006 266.595 36.9113 268.781 38.6544C270.966 40.3974 273.351 38.7044 274.769 37.0447ZM271.366 37.9455C266.754 38.4709 269.381 33.6754 270.532 32.4828C271.319 31.7285 272.155 31.0265 273.034 30.3811C274.835 29.0217 276.787 27.9375 278.705 26.7615C277.871 28.3878 277.237 30.0558 276.495 31.7071C275.636 33.642 273.901 37.6619 271.366 37.9455Z" fill="#263238"/>
<path d="M243.452 12.0831L223.694 48.654C223.694 48.654 189.659 39.2715 189.792 43.7418C190.134 55.6846 213.294 98.9943 205.855 120.662C198.633 141.703 164.38 135.39 164.38 135.39L155.206 91.188C157.088 90.6944 159.024 90.4339 160.969 90.4124C160.969 90.4124 143.247 29.9974 154.848 13.9763C158.642 8.73045 168.634 1.95002 178.35 1.03262C206.022 -1.56946 243.452 12.0831 243.452 12.0831Z" fill="#263238"/>
<path d="M202.686 84.8246C203.578 87.435 204.479 90.0454 205.28 92.6976C206.065 95.3602 206.706 98.0636 207.198 100.796C208.281 106.314 208.343 111.985 207.381 117.526C206.848 120.33 205.862 123.028 204.462 125.515C202.939 127.962 200.859 130.014 198.391 131.504C193.539 134.339 188.031 135.859 182.411 135.915C185.132 135.531 187.808 134.88 190.401 133.972C192.979 133.112 195.429 131.905 197.682 130.386C199.899 128.918 201.755 126.968 203.111 124.681C204.38 122.333 205.272 119.8 205.755 117.175C206.685 111.819 206.744 106.347 205.93 100.971C205.188 95.5665 203.887 90.2206 202.686 84.8246Z" fill="#455A64"/>
<path d="M222.986 22.4914L213.72 46.152C211.268 45.5682 208.574 44.9594 205.905 44.409L214.479 22.5248L222.986 22.4914Z" fill="#9FFF9E"/>
<path d="M208.115 22.4914L199.976 43.2664C197.263 42.7345 194.498 42.5134 191.736 42.6075L199.617 22.4914H208.115Z" fill="#9FFF9E"/>
</svg>
